<?xml version="1.0" encoding="UTF-8"?><svg id="Layer_2" xmlns="http://www.w3.org/2000/svg" viewBox="0 0 1069 268.62"><defs><style>.cls-1{fill:#fff;stroke:#084051;stroke-linecap:round;stroke-linejoin:round;stroke-width:5px;}</style></defs><g id="Layer_1-2"><path class="cls-1" d="M17.14,4.69l16.17,4.73-.07,1.65,5.73,2.08,1.55-2.36,1.89-.05s.94,2.56,.28,5.48l8.18,2.23S78.47,.84,84.14,2.63c5.67,1.79,27.31,33.55,27.31,33.55l13.75,24.6,12.66,2.61s4.38,8.51,4.45,8.66,34.34-11.55,34.34-11.55l6.61,12.83,10.08,12.7s11.98,4.93,11.13,10.59c-.85,5.66-2.84,7.39-2.84,7.39,0,0-4.29,10.37-13.35,8.97-9.06-1.4-44.28,.44-52.22-2.41-7.93-2.86-28.85-8.34-28.85-8.34l-6.49-10.7s-29.15-8.79-45.98-23.18c-16.83-14.39-14.16-16.26-14.16-16.26l-8.13-3.32s-2,3.68-3.31,4.25-2.29-2.69-2.29-2.69l-5.93-2.29-1.32,1.75-15.09-6.38S10.74,17.74,17.14,4.69Z"/><path class="cls-1" d="M232.64,4.69l16.17,4.73-.07,1.65,5.73,2.08,1.55-2.36,1.89-.05s.94,2.56,.28,5.48l8.18,2.23S293.97,.84,299.64,2.63c5.67,1.79,27.31,33.55,27.31,33.55l13.75,24.6,12.66,2.61s4.38,8.51,4.45,8.66,34.34-11.55,34.34-11.55l6.61,12.83,10.08,12.7s11.98,4.93,11.13,10.59c-.85,5.66-2.84,7.39-2.84,7.39,0,0-4.29,10.37-13.35,8.97-9.06-1.4-44.28,.44-52.22-2.41-7.93-2.86-28.85-8.34-28.85-8.34l-6.49-10.7s-29.15-8.79-45.98-23.18c-16.83-14.39-14.16-16.26-14.16-16.26l-8.13-3.32s-2,3.68-3.31,4.25-2.29-2.69-2.29-2.69l-5.93-2.29-1.32,1.75-15.09-6.38s6.24-25.67,12.64-38.71Z"/><path class="cls-1" d="M448.14,4.69l16.17,4.73-.07,1.65,5.73,2.08,1.55-2.36,1.89-.05s.94,2.56,.28,5.48l8.18,2.23s27.59-17.61,33.26-15.82c5.67,1.79,27.31,33.55,27.31,33.55l13.75,24.6,12.66,2.61s4.38,8.51,4.45,8.66,34.34-11.55,34.34-11.55l6.61,12.83,10.08,12.7s11.98,4.93,11.13,10.59c-.85,5.66-2.84,7.39-2.84,7.39,0,0-4.29,10.37-13.35,8.97-9.06-1.4-44.28,.44-52.22-2.41-7.93-2.86-28.85-8.34-28.85-8.34l-6.49-10.7s-29.15-8.79-45.98-23.18c-16.83-14.39-14.16-16.26-14.16-16.26l-8.13-3.32s-2,3.68-3.31,4.25-2.29-2.69-2.29-2.69l-5.93-2.29-1.32,1.75-15.09-6.38s6.24-25.67,12.64-38.71Z"/><path class="cls-1" d="M663.64,4.69l16.17,4.73-.07,1.65,5.73,2.08,1.55-2.36,1.89-.05s.94,2.56,.28,5.48l8.18,2.23s27.59-17.61,33.26-15.82c5.67,1.79,27.31,33.55,27.31,33.55l13.75,24.6,12.66,2.61s4.38,8.51,4.45,8.66,34.34-11.55,34.34-11.55l6.61,12.83,10.08,12.7s11.98,4.93,11.13,10.59c-.85,5.66-2.84,7.39-2.84,7.39,0,0-4.29,10.37-13.35,8.97-9.06-1.4-44.28,.44-52.22-2.41-7.93-2.86-28.85-8.34-28.85-8.34l-6.49-10.7s-29.15-8.79-45.98-23.18c-16.83-14.39-14.16-16.26-14.16-16.26l-8.13-3.32s-2,3.68-3.31,4.25-2.29-2.69-2.29-2.69l-5.93-2.29-1.32,1.75-15.09-6.38s6.24-25.67,12.64-38.71Z"/><path class="cls-1" d="M879.14,4.69l16.17,4.73-.07,1.65,5.73,2.08,1.55-2.36,1.89-.05s.94,2.56,.28,5.48l8.18,2.23s27.59-17.61,33.26-15.82c5.67,1.79,27.31,33.55,27.31,33.55l13.75,24.6,12.66,2.61s4.38,8.51,4.45,8.66,34.34-11.55,34.34-11.55l6.61,12.83,10.08,12.7s11.98,4.93,11.13,10.59c-.85,5.66-2.84,7.39-2.84,7.39,0,0-4.29,10.37-13.35,8.97-9.06-1.4-44.28,.44-52.22-2.41-7.93-2.86-28.85-8.34-28.85-8.34l-6.49-10.7s-29.15-8.79-45.98-23.18c-16.83-14.39-14.16-16.26-14.16-16.26l-8.13-3.32s-2,3.68-3.31,4.25-2.29-2.69-2.29-2.69l-5.93-2.29-1.32,1.75-15.09-6.38s6.24-25.67,12.64-38.71Z"/><path class="cls-1" d="M15.14,157.69l16.17,4.73-.07,1.65,5.73,2.08,1.55-2.36,1.89-.05s.94,2.56,.28,5.48l8.18,2.23s27.59-17.61,33.26-15.82c5.67,1.79,27.31,33.55,27.31,33.55l13.75,24.6,12.66,2.61s4.38,8.51,4.45,8.66,34.34-11.55,34.34-11.55l6.61,12.83,10.08,12.7s11.98,4.93,11.13,10.59c-.85,5.66-2.84,7.39-2.84,7.39,0,0-4.29,10.37-13.35,8.97-9.06-1.4-44.28,.44-52.22-2.41-7.93-2.86-28.85-8.34-28.85-8.34l-6.49-10.7s-29.15-8.79-45.98-23.18c-16.83-14.39-14.16-16.26-14.16-16.26l-8.13-3.32s-2,3.68-3.31,4.25-2.29-2.69-2.29-2.69l-5.93-2.29-1.32,1.75-15.09-6.38s6.24-25.67,12.64-38.71Z"/><path class="cls-1" d="M230.64,157.69l16.17,4.73-.07,1.65,5.73,2.08,1.55-2.36,1.89-.05s.94,2.56,.28,5.48l8.18,2.23s27.59-17.61,33.26-15.82c5.67,1.79,27.31,33.55,27.31,33.55l13.75,24.6,12.66,2.61s4.38,8.51,4.45,8.66,34.34-11.55,34.34-11.55l6.61,12.83,10.08,12.7s11.98,4.93,11.13,10.59c-.85,5.66-2.84,7.39-2.84,7.39,0,0-4.29,10.37-13.35,8.97-9.06-1.4-44.28,.44-52.22-2.41-7.93-2.86-28.85-8.34-28.85-8.34l-6.49-10.7s-29.15-8.79-45.98-23.18c-16.83-14.39-14.16-16.26-14.16-16.26l-8.13-3.32s-2,3.68-3.31,4.25-2.29-2.69-2.29-2.69l-5.93-2.29-1.32,1.75-15.09-6.38s6.24-25.67,12.64-38.71Z"/><path class="cls-1" d="M446.14,157.69l16.17,4.73-.07,1.65,5.73,2.08,1.55-2.36,1.89-.05s.94,2.56,.28,5.48l8.18,2.23s27.59-17.61,33.26-15.82c5.67,1.79,27.31,33.55,27.31,33.55l13.75,24.6,12.66,2.61s4.38,8.51,4.45,8.66,34.34-11.55,34.34-11.55l6.61,12.83,10.08,12.7s11.98,4.93,11.13,10.59c-.85,5.66-2.84,7.39-2.84,7.39,0,0-4.29,10.37-13.35,8.97-9.06-1.4-44.28,.44-52.22-2.41-7.93-2.86-28.85-8.34-28.85-8.34l-6.49-10.7s-29.15-8.79-45.98-23.18c-16.83-14.39-14.16-16.26-14.16-16.26l-8.13-3.32s-2,3.68-3.31,4.25-2.29-2.69-2.29-2.69l-5.93-2.29-1.32,1.75-15.09-6.38s6.24-25.67,12.64-38.71Z"/><path class="cls-1" d="M661.64,157.69l16.17,4.73-.07,1.65,5.73,2.08,1.55-2.36,1.89-.05s.94,2.56,.28,5.48l8.18,2.23s27.59-17.61,33.26-15.82c5.67,1.79,27.31,33.55,27.31,33.55l13.75,24.6,12.66,2.61s4.38,8.51,4.45,8.66,34.34-11.55,34.34-11.55l6.61,12.83,10.08,12.7s11.98,4.93,11.13,10.59c-.85,5.66-2.84,7.39-2.84,7.39,0,0-4.29,10.37-13.35,8.97-9.06-1.4-44.28,.44-52.22-2.41-7.93-2.86-28.85-8.34-28.85-8.34l-6.49-10.7s-29.15-8.79-45.98-23.18c-16.83-14.39-14.16-16.26-14.16-16.26l-8.13-3.32s-2,3.68-3.31,4.25-2.29-2.69-2.29-2.69l-5.93-2.29-1.32,1.75-15.09-6.38s6.24-25.67,12.64-38.71Z"/><path class="cls-1" d="M877.14,157.69l16.17,4.73-.07,1.65,5.73,2.08,1.55-2.36,1.89-.05s.94,2.56,.28,5.48l8.18,2.23s27.59-17.61,33.26-15.82c5.67,1.79,27.31,33.55,27.31,33.55l13.75,24.6,12.66,2.61s4.38,8.51,4.45,8.66,34.34-11.55,34.34-11.55l6.61,12.83,10.08,12.7s11.98,4.93,11.13,10.59c-.85,5.66-2.84,7.39-2.84,7.39,0,0-4.29,10.37-13.35,8.97-9.06-1.4-44.28,.44-52.22-2.41-7.93-2.86-28.85-8.34-28.85-8.34l-6.49-10.7s-29.15-8.79-45.98-23.18c-16.83-14.39-14.16-16.26-14.16-16.26l-8.13-3.32s-2,3.68-3.31,4.25-2.29-2.69-2.29-2.69l-5.93-2.29-1.32,1.75-15.09-6.38s6.24-25.67,12.64-38.71Z"/></g></svg>