<?xml version="1.0" encoding="UTF-8"?><svg id="Layer_2" xmlns="http://www.w3.org/2000/svg" viewBox="0 0 1065.18 375.92"><defs><style>.cls-1{fill:#fff;stroke:#084051;stroke-linecap:round;stroke-linejoin:round;stroke-width:5px;}</style></defs><g id="Layer_1-2"><path class="cls-1" d="M187.52,347.66s1.24,3.12,0,4.24-1.24,5.66-1.24,5.66c0,0-2.06,2.47-1.65,3.71s1.24,7.01,6.6,7.01c0,0,0,4.95,13.61,4.54,13.61-.41,4.95-7.83,4.95-7.83l-8.25-18.55s3.71,.41,4.12-1.65-2.47-21.44-2.89-21.85,2.89-23.5,2.47-23.91-8.66-32.57-8.66-33.81-6.6-30.92-5.77-34.63-1.65-18.97-1.65-18.97c0,0,3.71-.41,3.71-1.24s-2.89-7.42-2.89-7.42l-6.6-37.11s29.27-32.16,21.03-54.43c-8.25-22.26-24.74-49.07-24.74-49.07,0,0-16.08-10.72-16.9-8.66s.41-14.02-8.66-16.49-16.9-5.77-16.9-5.77c0,0,3.3-26.8-21.44-26.8s-23.5,16.08-23.5,16.08c0,0,.6,8.36-.01,8.61s-.63,3.67,0,4.64,.63,5.51,1.04,7.16,3.3,6.18,3.3,6.18c0,0-2.89,1.65-2.89,3.3s-6.6-1.65-8.25-.82-14.02,14.43-21.85,12.37-18.14,.41-18.14,.41c0,0-9.9-19.79-11.13-20.2s-1.65-7.83-1.65-7.83c0,0-5.77-5.36-5.36-7.01s-2.47-14.02-3.71-14.84S19.09,.69,15.38,2.75s2.89,10.31,2.89,10.31c0,0-13.61-11.54-15.26-9.9s1.24,9.07,1.24,9.07l10.72,20.2s-1.65,8.25-1.65,9.9,2.89,39.58,28.45,49.48c25.56,9.9,35.05,6.18,35.05,6.18l2.89,63.5s-.41,55.66,.41,57.31,23.09,2.89,23.09,2.89c0,0,5.77,32.57,7.01,33.4s2.89,8.25,2.89,11.54,5.36,26.8,6.18,29.27,2.89,30.92,3.3,33.4,5.77,14.43,4.54,17.32-.82,8.25-.82,8.25c0,0-9.48,13.19-16.9,14.02s-2.89,4.54-2.89,4.54c0,0,38.76-1.24,39.58-2.47s-1.65-10.31-1.65-10.31l.41-3.3s-1.24-2.89,0-4.54,1.24-4.54,1.24-4.54l-1.24-2.89s1.65-43.71,2.89-45.35-2.89-28.86-2.89-28.86c0,0,1.65-8.66,2.47-9.9s-.41-31.75-1.24-32.99,1.24-8.25,1.24-8.25c0,0,2.06-2.06,4.54,5.77,2.47,7.83,8.66,29.69,10.72,30.92s10.31,28.04,10.31,31.75,6.6,35.46,8.25,37.52,3.3,10.72,3.3,13.19-.41,5.77,0,7.01,3.09,1.44,3.09,1.44Z"/><path class="cls-1" d="M400.06,347.66s1.24,3.12,0,4.24-1.24,5.66-1.24,5.66c0,0-2.06,2.47-1.65,3.71s1.24,7.01,6.6,7.01c0,0,0,4.95,13.61,4.54,13.61-.41,4.95-7.83,4.95-7.83l-8.25-18.55s3.71,.41,4.12-1.65-2.47-21.44-2.89-21.85,2.89-23.5,2.47-23.91-8.66-32.57-8.66-33.81-6.6-30.92-5.77-34.63-1.65-18.97-1.65-18.97c0,0,3.71-.41,3.71-1.24s-2.89-7.42-2.89-7.42l-6.6-37.11s29.27-32.16,21.03-54.43c-8.25-22.26-24.74-49.07-24.74-49.07,0,0-16.08-10.72-16.9-8.66s.41-14.02-8.66-16.49-16.9-5.77-16.9-5.77c0,0,3.3-26.8-21.44-26.8s-23.5,16.08-23.5,16.08c0,0,.6,8.36-.01,8.61s-.63,3.67,0,4.64,.63,5.51,1.04,7.16,3.3,6.18,3.3,6.18c0,0-2.89,1.65-2.89,3.3s-6.6-1.65-8.25-.82-14.02,14.43-21.85,12.37-18.14,.41-18.14,.41c0,0-9.9-19.79-11.13-20.2s-1.65-7.83-1.65-7.83c0,0-5.77-5.36-5.36-7.01s-2.47-14.02-3.71-14.84-4.54-11.96-8.25-9.9,2.89,10.31,2.89,10.31c0,0-13.61-11.54-15.26-9.9s1.24,9.07,1.24,9.07l10.72,20.2s-1.65,8.25-1.65,9.9,2.89,39.58,28.45,49.48c25.56,9.9,35.05,6.18,35.05,6.18l2.89,63.5s-.41,55.66,.41,57.31,23.09,2.89,23.09,2.89c0,0,5.77,32.57,7.01,33.4s2.89,8.25,2.89,11.54,5.36,26.8,6.18,29.27,2.89,30.92,3.3,33.4,5.77,14.43,4.54,17.32-.82,8.25-.82,8.25c0,0-9.48,13.19-16.9,14.02s-2.89,4.54-2.89,4.54c0,0,38.76-1.24,39.58-2.47s-1.65-10.31-1.65-10.31l.41-3.3s-1.24-2.89,0-4.54,1.24-4.54,1.24-4.54l-1.24-2.89s1.65-43.71,2.89-45.35-2.89-28.86-2.89-28.86c0,0,1.65-8.66,2.47-9.9s-.41-31.75-1.24-32.99,1.24-8.25,1.24-8.25c0,0,2.06-2.06,4.54,5.77,2.47,7.83,8.66,29.69,10.72,30.92s10.31,28.04,10.31,31.75,6.6,35.46,8.25,37.52,3.3,10.72,3.3,13.19-.41,5.77,0,7.01,3.09,1.44,3.09,1.44Z"/><path class="cls-1" d="M612.61,347.66s1.24,3.12,0,4.24-1.24,5.66-1.24,5.66c0,0-2.06,2.47-1.65,3.71s1.24,7.01,6.6,7.01c0,0,0,4.95,13.61,4.54,13.61-.41,4.95-7.83,4.95-7.83l-8.25-18.55s3.71,.41,4.12-1.65-2.47-21.44-2.89-21.85,2.89-23.5,2.47-23.91-8.66-32.57-8.66-33.81-6.6-30.92-5.77-34.63-1.65-18.97-1.65-18.97c0,0,3.71-.41,3.71-1.24s-2.89-7.42-2.89-7.42l-6.6-37.11s29.27-32.16,21.03-54.43c-8.25-22.26-24.74-49.07-24.74-49.07,0,0-16.08-10.72-16.9-8.66-.82,2.06,.41-14.02-8.66-16.49s-16.9-5.77-16.9-5.77c0,0,3.3-26.8-21.44-26.8s-23.5,16.08-23.5,16.08c0,0,.6,8.36-.01,8.61s-.63,3.67,0,4.64,.63,5.51,1.04,7.16,3.3,6.18,3.3,6.18c0,0-2.89,1.65-2.89,3.3s-6.6-1.65-8.25-.82-14.02,14.43-21.85,12.37-18.14,.41-18.14,.41c0,0-9.9-19.79-11.13-20.2s-1.65-7.83-1.65-7.83c0,0-5.77-5.36-5.36-7.01s-2.47-14.02-3.71-14.84-4.54-11.96-8.25-9.9,2.89,10.31,2.89,10.31c0,0-13.61-11.54-15.26-9.9s1.24,9.07,1.24,9.07l10.72,20.2s-1.65,8.25-1.65,9.9,2.89,39.58,28.45,49.48c25.56,9.9,35.05,6.18,35.05,6.18l2.89,63.5s-.41,55.66,.41,57.31,23.09,2.89,23.09,2.89c0,0,5.77,32.57,7.01,33.4s2.89,8.25,2.89,11.54,5.36,26.8,6.18,29.27,2.89,30.92,3.3,33.4,5.77,14.43,4.54,17.32-.82,8.25-.82,8.25c0,0-9.48,13.19-16.9,14.02s-2.89,4.54-2.89,4.54c0,0,38.76-1.24,39.58-2.47s-1.65-10.31-1.65-10.31l.41-3.3s-1.24-2.89,0-4.54,1.24-4.54,1.24-4.54l-1.24-2.89s1.65-43.71,2.89-45.35-2.89-28.86-2.89-28.86c0,0,1.65-8.66,2.47-9.9s-.41-31.75-1.24-32.99,1.24-8.25,1.24-8.25c0,0,2.06-2.06,4.54,5.77,2.47,7.83,8.66,29.69,10.72,30.92s10.31,28.04,10.31,31.75,6.6,35.46,8.25,37.52,3.3,10.72,3.3,13.19-.41,5.77,0,7.01,3.09,1.44,3.09,1.44Z"/><path class="cls-1" d="M825.15,347.66s1.24,3.12,0,4.24-1.24,5.66-1.24,5.66c0,0-2.06,2.47-1.65,3.71s1.24,7.01,6.6,7.01c0,0,0,4.95,13.61,4.54,13.61-.41,4.95-7.83,4.95-7.83l-8.25-18.55s3.71,.41,4.12-1.65-2.47-21.44-2.89-21.85,2.89-23.5,2.47-23.91-8.66-32.57-8.66-33.81-6.6-30.92-5.77-34.63-1.65-18.97-1.65-18.97c0,0,3.71-.41,3.71-1.24s-2.89-7.42-2.89-7.42l-6.6-37.11s29.27-32.16,21.03-54.43c-8.25-22.26-24.74-49.07-24.74-49.07,0,0-16.08-10.72-16.9-8.66s.41-14.02-8.66-16.49-16.9-5.77-16.9-5.77c0,0,3.3-26.8-21.44-26.8s-23.5,16.08-23.5,16.08c0,0,.6,8.36-.01,8.61s-.63,3.67,0,4.64,.63,5.51,1.04,7.16,3.3,6.18,3.3,6.18c0,0-2.89,1.65-2.89,3.3s-6.6-1.65-8.25-.82-14.02,14.43-21.85,12.37-18.14,.41-18.14,.41c0,0-9.9-19.79-11.13-20.2s-1.65-7.83-1.65-7.83c0,0-5.77-5.36-5.36-7.01s-2.47-14.02-3.71-14.84-4.54-11.96-8.25-9.9,2.89,10.31,2.89,10.31c0,0-13.61-11.54-15.26-9.9s1.24,9.07,1.24,9.07l10.72,20.2s-1.65,8.25-1.65,9.9,2.89,39.58,28.45,49.48c25.56,9.9,35.05,6.18,35.05,6.18l2.89,63.5s-.41,55.66,.41,57.31,23.09,2.89,23.09,2.89c0,0,5.77,32.57,7.01,33.4s2.89,8.25,2.89,11.54,5.36,26.8,6.18,29.27,2.89,30.92,3.3,33.4,5.77,14.43,4.54,17.32-.82,8.25-.82,8.25c0,0-9.48,13.19-16.9,14.02s-2.89,4.54-2.89,4.54c0,0,38.76-1.24,39.58-2.47s-1.65-10.31-1.65-10.31l.41-3.3s-1.24-2.89,0-4.54,1.24-4.54,1.24-4.54l-1.24-2.89s1.65-43.71,2.89-45.35-2.89-28.86-2.89-28.86c0,0,1.65-8.66,2.47-9.9s-.41-31.75-1.24-32.99,1.24-8.25,1.24-8.25c0,0,2.06-2.06,4.54,5.77,2.47,7.83,8.66,29.69,10.72,30.92s10.31,28.04,10.31,31.75,6.6,35.46,8.25,37.52,3.3,10.72,3.3,13.19-.41,5.77,0,7.01,3.09,1.44,3.09,1.44Z"/><path class="cls-1" d="M1037.7,347.66s1.24,3.12,0,4.24-1.24,5.66-1.24,5.66c0,0-2.06,2.47-1.65,3.71s1.24,7.01,6.6,7.01c0,0,0,4.95,13.61,4.54,13.61-.41,4.95-7.83,4.95-7.83l-8.25-18.55s3.71,.41,4.12-1.65-2.47-21.44-2.89-21.85,2.89-23.5,2.47-23.91-8.66-32.57-8.66-33.81-6.6-30.92-5.77-34.63-1.65-18.97-1.65-18.97c0,0,3.71-.41,3.71-1.24s-2.89-7.42-2.89-7.42l-6.6-37.11s29.27-32.16,21.03-54.43c-8.25-22.26-24.74-49.07-24.74-49.07,0,0-16.08-10.72-16.9-8.66s.41-14.02-8.66-16.49-16.9-5.77-16.9-5.77c0,0,3.3-26.8-21.44-26.8s-23.5,16.08-23.5,16.08c0,0,.6,8.36-.01,8.61s-.63,3.67,0,4.64,.63,5.51,1.04,7.16,3.3,6.18,3.3,6.18c0,0-2.89,1.65-2.89,3.3s-6.6-1.65-8.25-.82-14.02,14.43-21.85,12.37-18.14,.41-18.14,.41c0,0-9.9-19.79-11.13-20.2s-1.65-7.83-1.65-7.83c0,0-5.77-5.36-5.36-7.01s-2.47-14.02-3.71-14.84-4.54-11.96-8.25-9.9,2.89,10.31,2.89,10.31c0,0-13.61-11.54-15.26-9.9s1.24,9.07,1.24,9.07l10.72,20.2s-1.65,8.25-1.65,9.9,2.89,39.58,28.45,49.48c25.56,9.9,35.05,6.18,35.05,6.18l2.89,63.5s-.41,55.66,.41,57.31,23.09,2.89,23.09,2.89c0,0,5.77,32.57,7.01,33.4s2.89,8.25,2.89,11.54,5.36,26.8,6.18,29.27,2.89,30.92,3.3,33.4,5.77,14.43,4.54,17.32-.82,8.25-.82,8.25c0,0-9.48,13.19-16.9,14.02s-2.89,4.54-2.89,4.54c0,0,38.76-1.24,39.58-2.47s-1.65-10.31-1.65-10.31l.41-3.3s-1.24-2.89,0-4.54,1.24-4.54,1.24-4.54l-1.24-2.89s1.65-43.71,2.89-45.35-2.89-28.86-2.89-28.86c0,0,1.65-8.66,2.47-9.9s-.41-31.75-1.24-32.99,1.24-8.25,1.24-8.25c0,0,2.06-2.06,4.54,5.77,2.47,7.83,8.66,29.69,10.72,30.92s10.31,28.04,10.31,31.75,6.6,35.46,8.25,37.52,3.3,10.72,3.3,13.19-.41,5.77,0,7.01,3.09,1.44,3.09,1.44Z"/></g></svg>