<?xml version="1.0" encoding="UTF-8"?><svg id="Layer_1" xmlns="http://www.w3.org/2000/svg" viewBox="0 0 1080 1080"><defs><style>.cls-1{fill:#fff;stroke:#084051;stroke-linecap:round;stroke-linejoin:round;stroke-width:5px;}</style></defs><g><path class="cls-1" d="M35.82,214.45s8.01,8.01,23.59-15.17c0,0,18.54-11.38,23.59-26.33,0,0,5.9-5.69,6.32-8.22,0,0,12.91-2.74,15.41,0,2.5,2.74,6.5,4.63,6.5,4.63,0,0,2.95,7.58,4.21,7.58s5.27-.63,4.85-12.22,1.05-18.33-11.17-13.48c0,0-1.9,4-12.01-.21,0,0,10.72-8.24,10.94-17.71,0,0,5.7-3.78,2.96-10.31s6.32-56.04,10.95-59.62c4.63-3.58,4.42-6.11,4.42-6.11l14.33-4.63s.84-4.21,1.69-4.63,10.32-1.26,10.32-1.26c0,0,1.17,2.53,9.12,0,7.95-2.53,23.75-7.37,26.7-7.16s9.69,1.9,11.17,1.47,5.94-1.81,4.89-2.85c-1.36-1.36-8.58-2.51-8.37-2.72h5.23s14.26,6.21,14.89,2.41c0,0-10.95-4.42-13.06-6.74s-50.14,1.9-50.77,4-6.95,1.26-6.95,1.26c0,0-11.17,4.21-15.8,0-4.63-4.21-14.75-2.53-16.64-.63s-6.32,.42-6.32,.42c0,0-1.69-3.16-3.58-1.69,0,0-3.37-1.9-4.21-1.26s-2.31-2.78-2.31-2.78c0,0,2.1-5.22,.41-9.44,0,0-.03-3.93,0-5.27,.09-4.37-9.9-10.02-2.63-10.02,.09,0-17.6-1.57-25.39,8.97,0,0-.63,4,.21,5.69s2.42,3.27,2.42,3.27c0,0,0,2.74,.63,4.42s1.69,3.58,1.69,3.58c0,0-1.26,1.26-.63,2.95s3.58,6.32,3.58,6.32c0,0-12.43,.42-19.17,20.22,0,0-3.37,6.53-4.85,7.16s.21,1.9,.21,1.9l-5.9,6.74s-5.69,2.02-11.48,11.44c-5.79,9.42-16.96,18.69-16.96,18.69,0,0-5.38,4.16-5.8,4.79-.37,.55-3.05,4.77-3.05,4.77,0,0-3.66,4.24-3.65,7.84,0,.71,.86,1.07,1.36,.57,.75-.75,1.71-1.85,2.29-3.01,0,0,4.07-4.71,8.28-6.4,0,0-4.25,6.01-3.98,6.28,.33,.33,1.38,.96,2.72,0,3.75-2.67,9.88-10.05,9.61-11.89-.42-2.95,23.38-14.11,27.39-26.12s.42-1.69,.42-1.69c0,0,7.37-5.69,8.64-6.95s3.37,.63,5.06-1.47,3.16-3.58,3.16-3.58c0,0,8.22,20.01-8.43,45.29l.84,1.69s-4,8.64-2.53,10.74-.63,10.32-.63,10.32c0,0-1.05,15.17,0,24.23,1.05,9.06,12.43,1.9,12.43,1.9,0,0-20.22,13.06-17.49,24.86,0,0-8.43,3.16-8.22,5.69s-14.54,12.01-11.48,19.49Z"/><path class="cls-1" d="M250.32,214.45s8.01,8.01,23.59-15.17c0,0,18.54-11.38,23.59-26.33,0,0,5.9-5.69,6.32-8.22,0,0,12.91-2.74,15.41,0,2.5,2.74,6.5,4.63,6.5,4.63,0,0,2.95,7.58,4.21,7.58s5.27-.63,4.85-12.22,1.05-18.33-11.17-13.48c0,0-1.9,4-12.01-.21,0,0,10.72-8.24,10.94-17.71,0,0,5.7-3.78,2.96-10.31s6.32-56.04,10.95-59.62c4.63-3.58,4.42-6.11,4.42-6.11l14.33-4.63s.84-4.21,1.69-4.63,10.32-1.26,10.32-1.26c0,0,1.17,2.53,9.12,0,7.95-2.53,23.75-7.37,26.7-7.16s9.69,1.9,11.17,1.47,5.94-1.81,4.89-2.85c-1.36-1.36-8.58-2.51-8.37-2.72h5.23s14.26,6.21,14.89,2.41c0,0-10.95-4.42-13.06-6.74s-50.14,1.9-50.77,4-6.95,1.26-6.95,1.26c0,0-11.17,4.21-15.8,0-4.63-4.21-14.75-2.53-16.64-.63s-6.32,.42-6.32,.42c0,0-1.69-3.16-3.58-1.69,0,0-3.37-1.9-4.21-1.26s-2.31-2.78-2.31-2.78c0,0,2.1-5.22,.41-9.44,0,0-.03-3.93,0-5.27,.09-4.37-9.9-10.02-2.63-10.02,.09,0-17.6-1.57-25.39,8.97,0,0-.63,4,.21,5.69s2.42,3.27,2.42,3.27c0,0,0,2.74,.63,4.42s1.69,3.58,1.69,3.58c0,0-1.26,1.26-.63,2.95s3.58,6.32,3.58,6.32c0,0-12.43,.42-19.17,20.22,0,0-3.37,6.53-4.85,7.16s.21,1.9,.21,1.9l-5.9,6.74s-5.69,2.02-11.48,11.44c-5.79,9.42-16.96,18.69-16.96,18.69,0,0-5.38,4.16-5.8,4.79-.37,.55-3.05,4.77-3.05,4.77,0,0-3.66,4.24-3.65,7.84,0,.71,.86,1.07,1.36,.57,.75-.75,1.71-1.85,2.29-3.01,0,0,4.07-4.71,8.28-6.4,0,0-4.25,6.01-3.98,6.28,.33,.33,1.38,.96,2.72,0,3.75-2.67,9.88-10.05,9.61-11.89-.42-2.95,23.38-14.11,27.39-26.12s.42-1.69,.42-1.69c0,0,7.37-5.69,8.64-6.95s3.37,.63,5.06-1.47,3.16-3.58,3.16-3.58c0,0,8.22,20.01-8.43,45.29l.84,1.69s-4,8.64-2.53,10.74-.63,10.32-.63,10.32c0,0-1.05,15.17,0,24.23,1.05,9.06,12.43,1.9,12.43,1.9,0,0-20.22,13.06-17.49,24.86,0,0-8.43,3.16-8.22,5.69s-14.54,12.01-11.48,19.49Z"/><path class="cls-1" d="M464.82,214.45s8.01,8.01,23.59-15.17c0,0,18.54-11.38,23.59-26.33,0,0,5.9-5.69,6.32-8.22,0,0,12.91-2.74,15.41,0,2.5,2.74,6.5,4.63,6.5,4.63,0,0,2.95,7.58,4.21,7.58s5.27-.63,4.85-12.22,1.05-18.33-11.17-13.48c0,0-1.9,4-12.01-.21,0,0,10.72-8.24,10.94-17.71,0,0,5.7-3.78,2.96-10.31s6.32-56.04,10.95-59.62c4.63-3.58,4.42-6.11,4.42-6.11l14.33-4.63s.84-4.21,1.69-4.63,10.32-1.26,10.32-1.26c0,0,1.17,2.53,9.12,0s23.75-7.37,26.7-7.16,9.69,1.9,11.17,1.47,5.94-1.81,4.89-2.85c-1.36-1.36-8.58-2.51-8.37-2.72h5.23s14.26,6.21,14.89,2.41c0,0-10.95-4.42-13.06-6.74s-50.14,1.9-50.77,4-6.95,1.26-6.95,1.26c0,0-11.17,4.21-15.8,0-4.63-4.21-14.75-2.53-16.64-.63-1.9,1.9-6.32,.42-6.32,.42,0,0-1.69-3.16-3.58-1.69,0,0-3.37-1.9-4.21-1.26s-2.31-2.78-2.31-2.78c0,0,2.1-5.22,.41-9.44,0,0-.03-3.93,0-5.27,.09-4.37-9.9-10.02-2.63-10.02,.09,0-17.6-1.57-25.39,8.97,0,0-.63,4,.21,5.69s2.42,3.27,2.42,3.27c0,0,0,2.74,.63,4.42s1.69,3.58,1.69,3.58c0,0-1.26,1.26-.63,2.95s3.58,6.32,3.58,6.32c0,0-12.43,.42-19.17,20.22,0,0-3.37,6.53-4.85,7.16s.21,1.9,.21,1.9l-5.9,6.74s-5.69,2.02-11.48,11.44c-5.79,9.42-16.96,18.69-16.96,18.69,0,0-5.38,4.16-5.8,4.79-.37,.55-3.05,4.77-3.05,4.77,0,0-3.66,4.24-3.65,7.84,0,.71,.86,1.07,1.36,.57,.75-.75,1.71-1.85,2.29-3.01,0,0,4.07-4.71,8.28-6.4,0,0-4.25,6.01-3.98,6.28,.33,.33,1.38,.96,2.72,0,3.75-2.67,9.88-10.05,9.61-11.89-.42-2.95,23.38-14.11,27.39-26.12s.42-1.69,.42-1.69c0,0,7.37-5.69,8.64-6.95s3.37,.63,5.06-1.47,3.16-3.58,3.16-3.58c0,0,8.22,20.01-8.43,45.29l.84,1.69s-4,8.64-2.53,10.74-.63,10.32-.63,10.32c0,0-1.05,15.17,0,24.23,1.05,9.06,12.43,1.9,12.43,1.9,0,0-20.22,13.06-17.49,24.86,0,0-8.43,3.16-8.22,5.69s-14.54,12.01-11.48,19.49Z"/><path class="cls-1" d="M679.32,214.45s8.01,8.01,23.59-15.17c0,0,18.54-11.38,23.59-26.33,0,0,5.9-5.69,6.32-8.22,0,0,12.91-2.74,15.41,0,2.5,2.74,6.5,4.63,6.5,4.63,0,0,2.95,7.58,4.21,7.58s5.27-.63,4.85-12.22,1.05-18.33-11.17-13.48c0,0-1.9,4-12.01-.21,0,0,10.72-8.24,10.94-17.71,0,0,5.7-3.78,2.96-10.31s6.32-56.04,10.95-59.62,4.42-6.11,4.42-6.11l14.33-4.63s.84-4.21,1.69-4.63,10.32-1.26,10.32-1.26c0,0,1.17,2.53,9.12,0s23.75-7.37,26.7-7.16,9.69,1.9,11.17,1.47,5.94-1.81,4.89-2.85c-1.36-1.36-8.58-2.51-8.37-2.72h5.23s14.26,6.21,14.89,2.41c0,0-10.95-4.42-13.06-6.74s-50.14,1.9-50.77,4-6.95,1.26-6.95,1.26c0,0-11.17,4.21-15.8,0-4.63-4.21-14.75-2.53-16.64-.63-1.9,1.9-6.32,.42-6.32,.42,0,0-1.69-3.16-3.58-1.69,0,0-3.37-1.9-4.21-1.26s-2.31-2.78-2.31-2.78c0,0,2.1-5.22,.41-9.44,0,0-.03-3.93,0-5.27,.09-4.37-9.9-10.02-2.63-10.02,.09,0-17.6-1.57-25.39,8.97,0,0-.63,4,.21,5.69s2.42,3.27,2.42,3.27c0,0,0,2.74,.63,4.42s1.69,3.58,1.69,3.58c0,0-1.26,1.26-.63,2.95s3.58,6.32,3.58,6.32c0,0-12.43,.42-19.17,20.22,0,0-3.37,6.53-4.85,7.16s.21,1.9,.21,1.9l-5.9,6.74s-5.69,2.02-11.48,11.44c-5.79,9.42-16.96,18.69-16.96,18.69,0,0-5.38,4.16-5.8,4.79-.37,.55-3.05,4.77-3.05,4.77,0,0-3.66,4.24-3.65,7.84,0,.71,.86,1.07,1.36,.57,.75-.75,1.71-1.85,2.29-3.01,0,0,4.07-4.71,8.28-6.4,0,0-4.25,6.01-3.98,6.28,.33,.33,1.38,.96,2.72,0,3.75-2.67,9.88-10.05,9.61-11.89-.42-2.95,23.38-14.11,27.39-26.12s.42-1.69,.42-1.69c0,0,7.37-5.69,8.64-6.95s3.37,.63,5.06-1.47,3.16-3.58,3.16-3.58c0,0,8.22,20.01-8.43,45.29l.84,1.69s-4,8.64-2.53,10.74-.63,10.32-.63,10.32c0,0-1.05,15.17,0,24.23,1.05,9.06,12.43,1.9,12.43,1.9,0,0-20.22,13.06-17.49,24.86,0,0-8.43,3.16-8.22,5.69s-14.54,12.01-11.48,19.49Z"/><path class="cls-1" d="M893.82,214.45s8.01,8.01,23.59-15.17c0,0,18.54-11.38,23.59-26.33,0,0,5.9-5.69,6.32-8.22,0,0,12.91-2.74,15.41,0,2.5,2.74,6.5,4.63,6.5,4.63,0,0,2.95,7.58,4.21,7.58s5.27-.63,4.85-12.22,1.05-18.33-11.17-13.48c0,0-1.9,4-12.01-.21,0,0,10.72-8.24,10.94-17.71,0,0,5.7-3.78,2.96-10.31-2.74-6.53,6.32-56.04,10.95-59.62s4.42-6.11,4.42-6.11l14.33-4.63s.84-4.21,1.69-4.63,10.32-1.26,10.32-1.26c0,0,1.17,2.53,9.12,0,7.95-2.53,23.75-7.37,26.7-7.16s9.69,1.9,11.17,1.47,5.94-1.81,4.89-2.85c-1.36-1.36-8.58-2.51-8.37-2.72h5.23s14.26,6.21,14.89,2.41c0,0-10.95-4.42-13.06-6.74s-50.14,1.9-50.77,4-6.95,1.26-6.95,1.26c0,0-11.17,4.21-15.8,0-4.63-4.21-14.75-2.53-16.64-.63-1.9,1.9-6.32,.42-6.32,.42,0,0-1.69-3.16-3.58-1.69,0,0-3.37-1.9-4.21-1.26s-2.31-2.78-2.31-2.78c0,0,2.1-5.22,.41-9.44,0,0-.03-3.93,0-5.27,.09-4.37-9.9-10.02-2.63-10.02,.09,0-17.6-1.57-25.39,8.97,0,0-.63,4,.21,5.69s2.42,3.27,2.42,3.27c0,0,0,2.74,.63,4.42s1.69,3.58,1.69,3.58c0,0-1.26,1.26-.63,2.95s3.58,6.32,3.58,6.32c0,0-12.43,.42-19.17,20.22,0,0-3.37,6.53-4.85,7.16s.21,1.9,.21,1.9l-5.9,6.74s-5.69,2.02-11.48,11.44c-5.79,9.42-16.96,18.69-16.96,18.69,0,0-5.38,4.16-5.8,4.79-.37,.55-3.05,4.77-3.05,4.77,0,0-3.66,4.24-3.65,7.84,0,.71,.86,1.07,1.36,.57,.75-.75,1.71-1.85,2.29-3.01,0,0,4.07-4.71,8.28-6.4,0,0-4.25,6.01-3.98,6.28,.33,.33,1.38,.96,2.72,0,3.75-2.67,9.88-10.05,9.61-11.89-.42-2.95,23.38-14.11,27.39-26.12,4-12.01,.42-1.69,.42-1.69,0,0,7.37-5.69,8.64-6.95s3.37,.63,5.06-1.47,3.16-3.58,3.16-3.58c0,0,8.22,20.01-8.43,45.29l.84,1.69s-4,8.64-2.53,10.74-.63,10.32-.63,10.32c0,0-1.05,15.17,0,24.23s12.43,1.9,12.43,1.9c0,0-20.22,13.06-17.49,24.86,0,0-8.43,3.16-8.22,5.69s-14.54,12.01-11.48,19.49Z"/></g><g><path class="cls-1" d="M35.82,427.95s8.01,8.01,23.59-15.17c0,0,18.54-11.38,23.59-26.33,0,0,5.9-5.69,6.32-8.22,0,0,12.91-2.74,15.41,0,2.5,2.74,6.5,4.63,6.5,4.63,0,0,2.95,7.58,4.21,7.58s5.27-.63,4.85-12.22,1.05-18.33-11.17-13.48c0,0-1.9,4-12.01-.21,0,0,10.72-8.24,10.94-17.71,0,0,5.7-3.78,2.96-10.31s6.32-56.04,10.95-59.62c4.63-3.58,4.42-6.11,4.42-6.11l14.33-4.63s.84-4.21,1.69-4.63,10.32-1.26,10.32-1.26c0,0,1.17,2.53,9.12,0,7.95-2.53,23.75-7.37,26.7-7.16s9.69,1.9,11.17,1.47,5.94-1.81,4.89-2.85c-1.36-1.36-8.58-2.51-8.37-2.72h5.23s14.26,6.21,14.89,2.41c0,0-10.95-4.42-13.06-6.74s-50.14,1.9-50.77,4-6.95,1.26-6.95,1.26c0,0-11.17,4.21-15.8,0-4.63-4.21-14.75-2.53-16.64-.63s-6.32,.42-6.32,.42c0,0-1.69-3.16-3.58-1.69,0,0-3.37-1.9-4.21-1.26s-2.31-2.78-2.31-2.78c0,0,2.1-5.22,.41-9.44,0,0-.03-3.93,0-5.27,.09-4.37-9.9-10.02-2.63-10.02,.09,0-17.6-1.57-25.39,8.97,0,0-.63,4,.21,5.69s2.42,3.27,2.42,3.27c0,0,0,2.74,.63,4.42s1.69,3.58,1.69,3.58c0,0-1.26,1.26-.63,2.95s3.58,6.32,3.58,6.32c0,0-12.43,.42-19.17,20.22,0,0-3.37,6.53-4.85,7.16s.21,1.9,.21,1.9l-5.9,6.74s-5.69,2.02-11.48,11.44c-5.79,9.42-16.96,18.69-16.96,18.69,0,0-5.38,4.16-5.8,4.79-.37,.55-3.05,4.77-3.05,4.77,0,0-3.66,4.24-3.65,7.84,0,.71,.86,1.07,1.36,.57,.75-.75,1.71-1.85,2.29-3.01,0,0,4.07-4.71,8.28-6.4,0,0-4.25,6.01-3.98,6.28,.33,.33,1.38,.96,2.72,0,3.75-2.67,9.88-10.05,9.61-11.89-.42-2.95,23.38-14.11,27.39-26.12s.42-1.69,.42-1.69c0,0,7.37-5.69,8.64-6.95s3.37,.63,5.06-1.47,3.16-3.58,3.16-3.58c0,0,8.22,20.01-8.43,45.29l.84,1.69s-4,8.64-2.53,10.74-.63,10.32-.63,10.32c0,0-1.05,15.17,0,24.23,1.05,9.06,12.43,1.9,12.43,1.9,0,0-20.22,13.06-17.49,24.86,0,0-8.43,3.16-8.22,5.69s-14.54,12.01-11.48,19.49Z"/><path class="cls-1" d="M250.32,427.95s8.01,8.01,23.59-15.17c0,0,18.54-11.38,23.59-26.33,0,0,5.9-5.69,6.32-8.22,0,0,12.91-2.74,15.41,0,2.5,2.74,6.5,4.63,6.5,4.63,0,0,2.95,7.58,4.21,7.58s5.27-.63,4.85-12.22,1.05-18.33-11.17-13.48c0,0-1.9,4-12.01-.21,0,0,10.72-8.24,10.94-17.71,0,0,5.7-3.78,2.96-10.31s6.32-56.04,10.95-59.62c4.63-3.58,4.42-6.11,4.42-6.11l14.33-4.63s.84-4.21,1.69-4.63,10.32-1.26,10.32-1.26c0,0,1.17,2.53,9.12,0,7.95-2.53,23.75-7.37,26.7-7.16s9.69,1.9,11.17,1.47,5.94-1.81,4.89-2.85c-1.36-1.36-8.58-2.51-8.37-2.72h5.23s14.26,6.21,14.89,2.41c0,0-10.95-4.42-13.06-6.74s-50.14,1.9-50.77,4-6.95,1.26-6.95,1.26c0,0-11.17,4.21-15.8,0-4.63-4.21-14.75-2.53-16.64-.63s-6.32,.42-6.32,.42c0,0-1.69-3.16-3.58-1.69,0,0-3.37-1.9-4.21-1.26s-2.31-2.78-2.31-2.78c0,0,2.1-5.22,.41-9.44,0,0-.03-3.93,0-5.27,.09-4.37-9.9-10.02-2.63-10.02,.09,0-17.6-1.57-25.39,8.97,0,0-.63,4,.21,5.69s2.42,3.27,2.42,3.27c0,0,0,2.74,.63,4.42s1.69,3.58,1.69,3.58c0,0-1.26,1.26-.63,2.95s3.58,6.32,3.58,6.32c0,0-12.43,.42-19.17,20.22,0,0-3.37,6.53-4.85,7.16s.21,1.9,.21,1.9l-5.9,6.74s-5.69,2.02-11.48,11.44c-5.79,9.42-16.96,18.69-16.96,18.69,0,0-5.38,4.16-5.8,4.79-.37,.55-3.05,4.77-3.05,4.77,0,0-3.66,4.24-3.65,7.84,0,.71,.86,1.07,1.36,.57,.75-.75,1.71-1.85,2.29-3.01,0,0,4.07-4.71,8.28-6.4,0,0-4.25,6.01-3.98,6.28,.33,.33,1.38,.96,2.72,0,3.75-2.67,9.88-10.05,9.61-11.89-.42-2.95,23.38-14.11,27.39-26.12s.42-1.69,.42-1.69c0,0,7.37-5.69,8.64-6.95s3.37,.63,5.06-1.47,3.16-3.58,3.16-3.58c0,0,8.22,20.01-8.43,45.29l.84,1.69s-4,8.64-2.53,10.74-.63,10.32-.63,10.32c0,0-1.05,15.17,0,24.23,1.05,9.06,12.43,1.9,12.43,1.9,0,0-20.22,13.06-17.49,24.86,0,0-8.43,3.16-8.22,5.69s-14.54,12.01-11.48,19.49Z"/><path class="cls-1" d="M464.82,427.95s8.01,8.01,23.59-15.17c0,0,18.54-11.38,23.59-26.33,0,0,5.9-5.69,6.32-8.22,0,0,12.91-2.74,15.41,0,2.5,2.74,6.5,4.63,6.5,4.63,0,0,2.95,7.58,4.21,7.58s5.27-.63,4.85-12.22,1.05-18.33-11.17-13.48c0,0-1.9,4-12.01-.21,0,0,10.72-8.24,10.94-17.71,0,0,5.7-3.78,2.96-10.31s6.32-56.04,10.95-59.62c4.63-3.58,4.42-6.11,4.42-6.11l14.33-4.63s.84-4.21,1.69-4.63,10.32-1.26,10.32-1.26c0,0,1.17,2.53,9.12,0s23.75-7.37,26.7-7.16,9.69,1.9,11.17,1.47,5.94-1.81,4.89-2.85c-1.36-1.36-8.58-2.51-8.37-2.72h5.23s14.26,6.21,14.89,2.41c0,0-10.95-4.42-13.06-6.74s-50.14,1.9-50.77,4-6.95,1.26-6.95,1.26c0,0-11.17,4.21-15.8,0-4.63-4.21-14.75-2.53-16.64-.63-1.9,1.9-6.32,.42-6.32,.42,0,0-1.69-3.16-3.58-1.69,0,0-3.37-1.9-4.21-1.26s-2.31-2.78-2.31-2.78c0,0,2.1-5.22,.41-9.44,0,0-.03-3.93,0-5.27,.09-4.37-9.9-10.02-2.63-10.02,.09,0-17.6-1.57-25.39,8.97,0,0-.63,4,.21,5.69s2.42,3.27,2.42,3.27c0,0,0,2.74,.63,4.42s1.69,3.58,1.69,3.58c0,0-1.26,1.26-.63,2.95s3.58,6.32,3.58,6.32c0,0-12.43,.42-19.17,20.22,0,0-3.37,6.53-4.85,7.16s.21,1.9,.21,1.9l-5.9,6.74s-5.69,2.02-11.48,11.44c-5.79,9.42-16.96,18.69-16.96,18.69,0,0-5.38,4.16-5.8,4.79-.37,.55-3.05,4.77-3.05,4.77,0,0-3.66,4.24-3.65,7.84,0,.71,.86,1.07,1.36,.57,.75-.75,1.71-1.85,2.29-3.01,0,0,4.07-4.71,8.28-6.4,0,0-4.25,6.01-3.98,6.28,.33,.33,1.38,.96,2.72,0,3.75-2.67,9.88-10.05,9.61-11.89-.42-2.95,23.38-14.11,27.39-26.12s.42-1.69,.42-1.69c0,0,7.37-5.69,8.64-6.95s3.37,.63,5.06-1.47,3.16-3.58,3.16-3.58c0,0,8.22,20.01-8.43,45.29l.84,1.69s-4,8.64-2.53,10.74-.63,10.32-.63,10.32c0,0-1.05,15.17,0,24.23,1.05,9.06,12.43,1.9,12.43,1.9,0,0-20.22,13.06-17.49,24.86,0,0-8.43,3.16-8.22,5.69s-14.54,12.01-11.48,19.49Z"/><path class="cls-1" d="M679.32,427.95s8.01,8.01,23.59-15.17c0,0,18.54-11.38,23.59-26.33,0,0,5.9-5.69,6.32-8.22,0,0,12.91-2.74,15.41,0,2.5,2.74,6.5,4.63,6.5,4.63,0,0,2.95,7.58,4.21,7.58s5.27-.63,4.85-12.22,1.05-18.33-11.17-13.48c0,0-1.9,4-12.01-.21,0,0,10.72-8.24,10.94-17.71,0,0,5.7-3.78,2.96-10.31s6.32-56.04,10.95-59.62,4.42-6.11,4.42-6.11l14.33-4.63s.84-4.21,1.69-4.63,10.32-1.26,10.32-1.26c0,0,1.17,2.53,9.12,0s23.75-7.37,26.7-7.16,9.69,1.9,11.17,1.47,5.94-1.81,4.89-2.85c-1.36-1.36-8.58-2.51-8.37-2.72h5.23s14.26,6.21,14.89,2.41c0,0-10.95-4.42-13.06-6.74s-50.14,1.9-50.77,4-6.95,1.26-6.95,1.26c0,0-11.17,4.21-15.8,0-4.63-4.21-14.75-2.53-16.64-.63-1.9,1.9-6.32,.42-6.32,.42,0,0-1.69-3.16-3.58-1.69,0,0-3.37-1.9-4.21-1.26s-2.31-2.78-2.31-2.78c0,0,2.1-5.22,.41-9.44,0,0-.03-3.93,0-5.27,.09-4.37-9.9-10.02-2.63-10.02,.09,0-17.6-1.57-25.39,8.97,0,0-.63,4,.21,5.69s2.42,3.27,2.42,3.27c0,0,0,2.74,.63,4.42s1.69,3.58,1.69,3.58c0,0-1.26,1.26-.63,2.95s3.58,6.32,3.58,6.32c0,0-12.43,.42-19.17,20.22,0,0-3.37,6.53-4.85,7.16s.21,1.9,.21,1.9l-5.9,6.74s-5.69,2.02-11.48,11.44c-5.79,9.42-16.96,18.69-16.96,18.69,0,0-5.38,4.16-5.8,4.79-.37,.55-3.05,4.77-3.05,4.77,0,0-3.66,4.24-3.65,7.84,0,.71,.86,1.07,1.36,.57,.75-.75,1.71-1.85,2.29-3.01,0,0,4.07-4.71,8.28-6.4,0,0-4.25,6.01-3.98,6.28,.33,.33,1.38,.96,2.72,0,3.75-2.67,9.88-10.05,9.61-11.89-.42-2.95,23.38-14.11,27.39-26.12s.42-1.69,.42-1.69c0,0,7.37-5.69,8.64-6.95s3.37,.63,5.06-1.47,3.16-3.58,3.16-3.58c0,0,8.22,20.01-8.43,45.29l.84,1.69s-4,8.64-2.53,10.74-.63,10.32-.63,10.32c0,0-1.05,15.17,0,24.23,1.05,9.06,12.43,1.9,12.43,1.9,0,0-20.22,13.06-17.49,24.86,0,0-8.43,3.16-8.22,5.69s-14.54,12.01-11.48,19.49Z"/><path class="cls-1" d="M893.82,427.95s8.01,8.01,23.59-15.17c0,0,18.54-11.38,23.59-26.33,0,0,5.9-5.69,6.32-8.22,0,0,12.91-2.74,15.41,0,2.5,2.74,6.5,4.63,6.5,4.63,0,0,2.95,7.58,4.21,7.58s5.27-.63,4.85-12.22,1.05-18.33-11.17-13.48c0,0-1.9,4-12.01-.21,0,0,10.72-8.24,10.94-17.71,0,0,5.7-3.78,2.96-10.31-2.74-6.53,6.32-56.04,10.95-59.62s4.42-6.11,4.42-6.11l14.33-4.63s.84-4.21,1.69-4.63,10.32-1.26,10.32-1.26c0,0,1.17,2.53,9.12,0,7.95-2.53,23.75-7.37,26.7-7.16s9.69,1.9,11.17,1.47,5.94-1.81,4.89-2.85c-1.36-1.36-8.58-2.51-8.37-2.72h5.23s14.26,6.21,14.89,2.41c0,0-10.95-4.42-13.06-6.74s-50.14,1.9-50.77,4-6.95,1.26-6.95,1.26c0,0-11.17,4.21-15.8,0-4.63-4.21-14.75-2.53-16.64-.63-1.9,1.9-6.32,.42-6.32,.42,0,0-1.69-3.16-3.58-1.69,0,0-3.37-1.9-4.21-1.26s-2.31-2.78-2.31-2.78c0,0,2.1-5.22,.41-9.44,0,0-.03-3.93,0-5.27,.09-4.37-9.9-10.02-2.63-10.02,.09,0-17.6-1.57-25.39,8.97,0,0-.63,4,.21,5.69s2.42,3.27,2.42,3.27c0,0,0,2.74,.63,4.42s1.69,3.58,1.69,3.58c0,0-1.26,1.26-.63,2.95s3.58,6.32,3.58,6.32c0,0-12.43,.42-19.17,20.22,0,0-3.37,6.53-4.85,7.16s.21,1.9,.21,1.9l-5.9,6.74s-5.69,2.02-11.48,11.44c-5.79,9.42-16.96,18.69-16.96,18.69,0,0-5.38,4.16-5.8,4.79-.37,.55-3.05,4.77-3.05,4.77,0,0-3.66,4.24-3.65,7.84,0,.71,.86,1.07,1.36,.57,.75-.75,1.71-1.85,2.29-3.01,0,0,4.07-4.71,8.28-6.4,0,0-4.25,6.01-3.98,6.28,.33,.33,1.38,.96,2.72,0,3.75-2.67,9.88-10.05,9.61-11.89-.42-2.95,23.38-14.11,27.39-26.12,4-12.01,.42-1.69,.42-1.69,0,0,7.37-5.69,8.64-6.95s3.37,.63,5.06-1.47,3.16-3.58,3.16-3.58c0,0,8.22,20.01-8.43,45.29l.84,1.69s-4,8.64-2.53,10.74-.63,10.32-.63,10.32c0,0-1.05,15.17,0,24.23s12.43,1.9,12.43,1.9c0,0-20.22,13.06-17.49,24.86,0,0-8.43,3.16-8.22,5.69s-14.54,12.01-11.48,19.49Z"/></g><g><path class="cls-1" d="M35.82,641.45s8.01,8.01,23.59-15.17c0,0,18.54-11.38,23.59-26.33,0,0,5.9-5.69,6.32-8.22,0,0,12.91-2.74,15.41,0,2.5,2.74,6.5,4.63,6.5,4.63,0,0,2.95,7.58,4.21,7.58s5.27-.63,4.85-12.22,1.05-18.33-11.17-13.48c0,0-1.9,4-12.01-.21,0,0,10.72-8.24,10.94-17.71,0,0,5.7-3.78,2.96-10.31s6.32-56.04,10.95-59.62,4.42-6.11,4.42-6.11l14.33-4.63s.84-4.21,1.69-4.63,10.32-1.26,10.32-1.26c0,0,1.17,2.53,9.12,0,7.95-2.53,23.75-7.37,26.7-7.16s9.69,1.9,11.17,1.47,5.94-1.81,4.89-2.85c-1.36-1.36-8.58-2.51-8.37-2.72h5.23s14.26,6.21,14.89,2.41c0,0-10.95-4.42-13.06-6.74s-50.14,1.9-50.77,4-6.95,1.26-6.95,1.26c0,0-11.17,4.21-15.8,0s-14.75-2.53-16.64-.63c-1.9,1.9-6.32,.42-6.32,.42,0,0-1.69-3.16-3.58-1.69,0,0-3.37-1.9-4.21-1.26s-2.31-2.78-2.31-2.78c0,0,2.1-5.22,.41-9.44,0,0-.03-3.93,0-5.27,.09-4.37-9.9-10.02-2.63-10.02,.09,0-17.6-1.57-25.39,8.97,0,0-.63,4,.21,5.69s2.42,3.27,2.42,3.27c0,0,0,2.74,.63,4.42s1.69,3.58,1.69,3.58c0,0-1.26,1.26-.63,2.95s3.58,6.32,3.58,6.32c0,0-12.43,.42-19.17,20.22,0,0-3.37,6.53-4.85,7.16s.21,1.9,.21,1.9l-5.9,6.74s-5.69,2.02-11.48,11.44c-5.79,9.42-16.96,18.69-16.96,18.69,0,0-5.38,4.16-5.8,4.79-.37,.55-3.05,4.77-3.05,4.77,0,0-3.66,4.24-3.65,7.84,0,.71,.86,1.07,1.36,.57,.75-.75,1.71-1.85,2.29-3.01,0,0,4.07-4.71,8.28-6.4,0,0-4.25,6.01-3.98,6.28,.33,.33,1.38,.96,2.72,0,3.75-2.67,9.88-10.05,9.61-11.89-.42-2.95,23.38-14.11,27.39-26.12s.42-1.69,.42-1.69c0,0,7.37-5.69,8.64-6.95s3.37,.63,5.06-1.47,3.16-3.58,3.16-3.58c0,0,8.22,20.01-8.43,45.29l.84,1.69s-4,8.64-2.53,10.74-.63,10.32-.63,10.32c0,0-1.05,15.17,0,24.23,1.05,9.06,12.43,1.9,12.43,1.9,0,0-20.22,13.06-17.49,24.86,0,0-8.43,3.16-8.22,5.69s-14.54,12.01-11.48,19.49Z"/><path class="cls-1" d="M250.32,641.45s8.01,8.01,23.59-15.17c0,0,18.54-11.38,23.59-26.33,0,0,5.9-5.69,6.32-8.22,0,0,12.91-2.74,15.41,0,2.5,2.74,6.5,4.63,6.5,4.63,0,0,2.95,7.58,4.21,7.58s5.27-.63,4.85-12.22,1.05-18.33-11.17-13.48c0,0-1.9,4-12.01-.21,0,0,10.72-8.24,10.94-17.71,0,0,5.7-3.78,2.96-10.31s6.32-56.04,10.95-59.62,4.42-6.11,4.42-6.11l14.33-4.63s.84-4.21,1.69-4.63,10.32-1.26,10.32-1.26c0,0,1.17,2.53,9.12,0,7.95-2.53,23.75-7.37,26.7-7.16s9.69,1.9,11.17,1.47,5.94-1.81,4.89-2.85c-1.36-1.36-8.58-2.51-8.37-2.72h5.23s14.26,6.21,14.89,2.41c0,0-10.95-4.42-13.06-6.74s-50.14,1.9-50.77,4-6.95,1.26-6.95,1.26c0,0-11.17,4.21-15.8,0s-14.75-2.53-16.64-.63c-1.9,1.9-6.32,.42-6.32,.42,0,0-1.69-3.16-3.58-1.69,0,0-3.37-1.9-4.21-1.26s-2.31-2.78-2.31-2.78c0,0,2.1-5.22,.41-9.44,0,0-.03-3.93,0-5.27,.09-4.37-9.9-10.02-2.63-10.02,.09,0-17.6-1.57-25.39,8.97,0,0-.63,4,.21,5.69s2.42,3.27,2.42,3.27c0,0,0,2.74,.63,4.42s1.69,3.58,1.69,3.58c0,0-1.26,1.26-.63,2.95s3.58,6.32,3.58,6.32c0,0-12.43,.42-19.17,20.22,0,0-3.37,6.53-4.85,7.16s.21,1.9,.21,1.9l-5.9,6.74s-5.69,2.02-11.48,11.44c-5.79,9.42-16.96,18.69-16.96,18.69,0,0-5.38,4.16-5.8,4.79-.37,.55-3.05,4.77-3.05,4.77,0,0-3.66,4.24-3.65,7.84,0,.71,.86,1.07,1.36,.57,.75-.75,1.71-1.85,2.29-3.01,0,0,4.07-4.71,8.28-6.4,0,0-4.25,6.01-3.98,6.28,.33,.33,1.38,.96,2.72,0,3.75-2.67,9.88-10.05,9.61-11.89-.42-2.95,23.38-14.11,27.39-26.12s.42-1.69,.42-1.69c0,0,7.37-5.69,8.64-6.95s3.37,.63,5.06-1.47,3.16-3.58,3.16-3.58c0,0,8.22,20.01-8.43,45.29l.84,1.69s-4,8.64-2.53,10.74-.63,10.32-.63,10.32c0,0-1.05,15.17,0,24.23,1.05,9.06,12.43,1.9,12.43,1.9,0,0-20.22,13.06-17.49,24.86,0,0-8.43,3.16-8.22,5.69s-14.54,12.01-11.48,19.49Z"/><path class="cls-1" d="M464.82,641.45s8.01,8.01,23.59-15.17c0,0,18.54-11.38,23.59-26.33,0,0,5.9-5.69,6.32-8.22,0,0,12.91-2.74,15.41,0,2.5,2.74,6.5,4.63,6.5,4.63,0,0,2.95,7.58,4.21,7.58s5.27-.63,4.85-12.22,1.05-18.33-11.17-13.48c0,0-1.9,4-12.01-.21,0,0,10.72-8.24,10.94-17.71,0,0,5.7-3.78,2.96-10.31s6.32-56.04,10.95-59.62c4.63-3.58,4.42-6.11,4.42-6.11l14.33-4.63s.84-4.21,1.69-4.63,10.32-1.26,10.32-1.26c0,0,1.17,2.53,9.12,0s23.75-7.37,26.7-7.16,9.69,1.9,11.17,1.47,5.94-1.81,4.89-2.85c-1.36-1.36-8.58-2.51-8.37-2.72h5.23s14.26,6.21,14.89,2.41c0,0-10.95-4.42-13.06-6.74s-50.14,1.9-50.77,4-6.95,1.26-6.95,1.26c0,0-11.17,4.21-15.8,0-4.63-4.21-14.75-2.53-16.64-.63-1.9,1.9-6.32,.42-6.32,.42,0,0-1.69-3.16-3.58-1.69,0,0-3.37-1.9-4.21-1.26s-2.31-2.78-2.31-2.78c0,0,2.1-5.22,.41-9.44,0,0-.03-3.93,0-5.27,.09-4.37-9.9-10.02-2.63-10.02,.09,0-17.6-1.57-25.39,8.97,0,0-.63,4,.21,5.69s2.42,3.27,2.42,3.27c0,0,0,2.74,.63,4.42s1.69,3.58,1.69,3.58c0,0-1.26,1.26-.63,2.95s3.58,6.32,3.58,6.32c0,0-12.43,.42-19.17,20.22,0,0-3.37,6.53-4.85,7.16s.21,1.9,.21,1.9l-5.9,6.74s-5.69,2.02-11.48,11.44c-5.79,9.42-16.96,18.69-16.96,18.69,0,0-5.38,4.16-5.8,4.79-.37,.55-3.05,4.77-3.05,4.77,0,0-3.66,4.24-3.65,7.84,0,.71,.86,1.07,1.36,.57,.75-.75,1.71-1.85,2.29-3.01,0,0,4.07-4.71,8.28-6.4,0,0-4.25,6.01-3.98,6.28,.33,.33,1.38,.96,2.72,0,3.75-2.67,9.88-10.05,9.61-11.89-.42-2.95,23.38-14.11,27.39-26.12s.42-1.69,.42-1.69c0,0,7.37-5.69,8.64-6.95s3.37,.63,5.06-1.47,3.16-3.58,3.16-3.58c0,0,8.22,20.01-8.43,45.29l.84,1.69s-4,8.64-2.53,10.74-.63,10.32-.63,10.32c0,0-1.05,15.17,0,24.23,1.05,9.06,12.43,1.9,12.43,1.9,0,0-20.22,13.06-17.49,24.86,0,0-8.43,3.16-8.22,5.69s-14.54,12.01-11.48,19.49Z"/><path class="cls-1" d="M679.32,641.45s8.01,8.01,23.59-15.17c0,0,18.54-11.38,23.59-26.33,0,0,5.9-5.69,6.32-8.22,0,0,12.91-2.74,15.41,0,2.5,2.74,6.5,4.63,6.5,4.63,0,0,2.95,7.58,4.21,7.58s5.27-.63,4.85-12.22,1.05-18.33-11.17-13.48c0,0-1.9,4-12.01-.21,0,0,10.72-8.24,10.94-17.71,0,0,5.7-3.78,2.96-10.31s6.32-56.04,10.95-59.62,4.42-6.11,4.42-6.11l14.33-4.63s.84-4.21,1.69-4.63,10.32-1.26,10.32-1.26c0,0,1.17,2.53,9.12,0s23.75-7.37,26.7-7.16,9.69,1.9,11.17,1.47,5.94-1.81,4.89-2.85c-1.36-1.36-8.58-2.51-8.37-2.72h5.23s14.26,6.21,14.89,2.41c0,0-10.95-4.42-13.06-6.74s-50.14,1.9-50.77,4-6.95,1.26-6.95,1.26c0,0-11.17,4.21-15.8,0s-14.75-2.53-16.64-.63c-1.9,1.9-6.32,.42-6.32,.42,0,0-1.69-3.16-3.58-1.69,0,0-3.37-1.9-4.21-1.26s-2.31-2.78-2.31-2.78c0,0,2.1-5.22,.41-9.44,0,0-.03-3.93,0-5.27,.09-4.37-9.9-10.02-2.63-10.02,.09,0-17.6-1.57-25.39,8.97,0,0-.63,4,.21,5.69s2.42,3.27,2.42,3.27c0,0,0,2.74,.63,4.42s1.69,3.58,1.69,3.58c0,0-1.26,1.26-.63,2.95s3.58,6.32,3.58,6.32c0,0-12.43,.42-19.17,20.22,0,0-3.37,6.53-4.85,7.16s.21,1.9,.21,1.9l-5.9,6.74s-5.69,2.02-11.48,11.44c-5.79,9.42-16.96,18.69-16.96,18.69,0,0-5.38,4.16-5.8,4.79-.37,.55-3.05,4.77-3.05,4.77,0,0-3.66,4.24-3.65,7.84,0,.71,.86,1.07,1.36,.57,.75-.75,1.71-1.85,2.29-3.01,0,0,4.07-4.71,8.28-6.4,0,0-4.25,6.01-3.98,6.28,.33,.33,1.38,.96,2.72,0,3.75-2.67,9.88-10.05,9.61-11.89-.42-2.95,23.38-14.11,27.39-26.12s.42-1.69,.42-1.69c0,0,7.37-5.69,8.64-6.95s3.37,.63,5.06-1.47,3.16-3.58,3.16-3.58c0,0,8.22,20.01-8.43,45.29l.84,1.69s-4,8.64-2.53,10.74-.63,10.32-.63,10.32c0,0-1.05,15.17,0,24.23,1.05,9.06,12.43,1.9,12.43,1.9,0,0-20.22,13.06-17.49,24.86,0,0-8.43,3.16-8.22,5.69s-14.54,12.01-11.48,19.49Z"/><path class="cls-1" d="M893.82,641.45s8.01,8.01,23.59-15.17c0,0,18.54-11.38,23.59-26.33,0,0,5.9-5.69,6.32-8.22,0,0,12.91-2.74,15.41,0,2.5,2.74,6.5,4.63,6.5,4.63,0,0,2.95,7.58,4.21,7.58s5.27-.63,4.85-12.22,1.05-18.33-11.17-13.48c0,0-1.9,4-12.01-.21,0,0,10.72-8.24,10.94-17.71,0,0,5.7-3.78,2.96-10.31-2.74-6.53,6.32-56.04,10.95-59.62s4.42-6.11,4.42-6.11l14.33-4.63s.84-4.21,1.69-4.63,10.32-1.26,10.32-1.26c0,0,1.17,2.53,9.12,0,7.95-2.53,23.75-7.37,26.7-7.16s9.69,1.9,11.17,1.47,5.94-1.81,4.89-2.85c-1.36-1.36-8.58-2.51-8.37-2.72h5.23s14.26,6.21,14.89,2.41c0,0-10.95-4.42-13.06-6.74s-50.14,1.9-50.77,4-6.95,1.26-6.95,1.26c0,0-11.17,4.21-15.8,0-4.63-4.21-14.75-2.53-16.64-.63-1.9,1.9-6.32,.42-6.32,.42,0,0-1.69-3.16-3.58-1.69,0,0-3.37-1.9-4.21-1.26s-2.31-2.78-2.31-2.78c0,0,2.1-5.22,.41-9.44,0,0-.03-3.93,0-5.27,.09-4.37-9.9-10.02-2.63-10.02,.09,0-17.6-1.57-25.39,8.97,0,0-.63,4,.21,5.69s2.42,3.27,2.42,3.27c0,0,0,2.74,.63,4.42s1.69,3.58,1.69,3.58c0,0-1.26,1.26-.63,2.95s3.58,6.32,3.58,6.32c0,0-12.43,.42-19.17,20.22,0,0-3.37,6.53-4.85,7.16s.21,1.9,.21,1.9l-5.9,6.74s-5.69,2.02-11.48,11.44c-5.79,9.42-16.96,18.69-16.96,18.69,0,0-5.38,4.16-5.8,4.79-.37,.55-3.05,4.77-3.05,4.77,0,0-3.66,4.24-3.65,7.84,0,.71,.86,1.07,1.36,.57,.75-.75,1.71-1.85,2.29-3.01,0,0,4.07-4.71,8.28-6.4,0,0-4.25,6.01-3.98,6.28,.33,.33,1.38,.96,2.72,0,3.75-2.67,9.88-10.05,9.61-11.89-.42-2.95,23.38-14.11,27.39-26.12,4-12.01,.42-1.69,.42-1.69,0,0,7.37-5.69,8.64-6.95s3.37,.63,5.06-1.47,3.16-3.58,3.16-3.58c0,0,8.22,20.01-8.43,45.29l.84,1.69s-4,8.64-2.53,10.74-.63,10.32-.63,10.32c0,0-1.05,15.17,0,24.23s12.43,1.9,12.43,1.9c0,0-20.22,13.06-17.49,24.86,0,0-8.43,3.16-8.22,5.69s-14.54,12.01-11.48,19.49Z"/></g><g><path class="cls-1" d="M41.82,854.95s8.01,8.01,23.59-15.17c0,0,18.54-11.38,23.59-26.33,0,0,5.9-5.69,6.32-8.22,0,0,12.91-2.74,15.41,0,2.5,2.74,6.5,4.63,6.5,4.63,0,0,2.95,7.58,4.21,7.58s5.27-.63,4.85-12.22,1.05-18.33-11.17-13.48c0,0-1.9,4-12.01-.21,0,0,10.72-8.24,10.94-17.71,0,0,5.7-3.78,2.96-10.31-2.74-6.53,6.32-56.04,10.95-59.62,4.63-3.58,4.42-6.11,4.42-6.11l14.33-4.63s.84-4.21,1.69-4.63,10.32-1.26,10.32-1.26c0,0,1.17,2.53,9.12,0s23.75-7.37,26.7-7.16c2.95,.21,9.69,1.9,11.17,1.47s5.94-1.81,4.89-2.85c-1.36-1.36-8.58-2.51-8.37-2.72h5.23s14.26,6.21,14.89,2.41c0,0-10.95-4.42-13.06-6.74s-50.14,1.9-50.77,4-6.95,1.26-6.95,1.26c0,0-11.17,4.21-15.8,0s-14.75-2.53-16.64-.63c-1.9,1.9-6.32,.42-6.32,.42,0,0-1.69-3.16-3.58-1.69,0,0-3.37-1.9-4.21-1.26s-2.31-2.78-2.31-2.78c0,0,2.1-5.22,.41-9.44,0,0-.03-3.93,0-5.27,.09-4.37-9.9-10.02-2.63-10.02,.09,0-17.6-1.57-25.39,8.97,0,0-.63,4,.21,5.69s2.42,3.27,2.42,3.27c0,0,0,2.74,.63,4.42s1.69,3.58,1.69,3.58c0,0-1.26,1.26-.63,2.95s3.58,6.32,3.58,6.32c0,0-12.43,.42-19.17,20.22,0,0-3.37,6.53-4.85,7.16s.21,1.9,.21,1.9l-5.9,6.74s-5.69,2.02-11.48,11.44-16.96,18.69-16.96,18.69c0,0-5.38,4.16-5.8,4.79-.37,.55-3.05,4.77-3.05,4.77,0,0-3.66,4.24-3.65,7.84,0,.71,.86,1.07,1.36,.57,.75-.75,1.71-1.85,2.29-3.01,0,0,4.07-4.71,8.28-6.4,0,0-4.25,6.01-3.98,6.28,.33,.33,1.38,.96,2.72,0,3.75-2.67,9.88-10.05,9.61-11.89-.42-2.95,23.38-14.11,27.39-26.12s.42-1.69,.42-1.69c0,0,7.37-5.69,8.64-6.95s3.37,.63,5.06-1.47,3.16-3.58,3.16-3.58c0,0,8.22,20.01-8.43,45.29l.84,1.69s-4,8.64-2.53,10.74-.63,10.32-.63,10.32c0,0-1.05,15.17,0,24.23,1.05,9.06,12.43,1.9,12.43,1.9,0,0-20.22,13.06-17.49,24.86,0,0-8.43,3.16-8.22,5.69s-14.54,12.01-11.48,19.49Z"/><path class="cls-1" d="M256.32,854.95s8.01,8.01,23.59-15.17c0,0,18.54-11.38,23.59-26.33,0,0,5.9-5.69,6.32-8.22,0,0,12.91-2.74,15.41,0,2.5,2.74,6.5,4.63,6.5,4.63,0,0,2.95,7.58,4.21,7.58s5.27-.63,4.85-12.22,1.05-18.33-11.17-13.48c0,0-1.9,4-12.01-.21,0,0,10.72-8.24,10.94-17.71,0,0,5.7-3.78,2.96-10.31-2.74-6.53,6.32-56.04,10.95-59.62,4.63-3.58,4.42-6.11,4.42-6.11l14.33-4.63s.84-4.21,1.69-4.63,10.32-1.26,10.32-1.26c0,0,1.17,2.53,9.12,0s23.75-7.37,26.7-7.16c2.95,.21,9.69,1.9,11.17,1.47s5.94-1.81,4.89-2.85c-1.36-1.36-8.58-2.51-8.37-2.72h5.23s14.26,6.21,14.89,2.41c0,0-10.95-4.42-13.06-6.74s-50.14,1.9-50.77,4-6.95,1.26-6.95,1.26c0,0-11.17,4.21-15.8,0s-14.75-2.53-16.64-.63c-1.9,1.9-6.32,.42-6.32,.42,0,0-1.69-3.16-3.58-1.69,0,0-3.37-1.9-4.21-1.26s-2.31-2.78-2.31-2.78c0,0,2.1-5.22,.41-9.44,0,0-.03-3.93,0-5.27,.09-4.37-9.9-10.02-2.63-10.02,.09,0-17.6-1.57-25.39,8.97,0,0-.63,4,.21,5.69s2.42,3.27,2.42,3.27c0,0,0,2.74,.63,4.42s1.69,3.58,1.69,3.58c0,0-1.26,1.26-.63,2.95s3.58,6.32,3.58,6.32c0,0-12.43,.42-19.17,20.22,0,0-3.37,6.53-4.85,7.16s.21,1.9,.21,1.9l-5.9,6.74s-5.69,2.02-11.48,11.44-16.96,18.69-16.96,18.69c0,0-5.38,4.16-5.8,4.79-.37,.55-3.05,4.77-3.05,4.77,0,0-3.66,4.24-3.65,7.84,0,.71,.86,1.07,1.36,.57,.75-.75,1.71-1.85,2.29-3.01,0,0,4.07-4.71,8.28-6.4,0,0-4.25,6.01-3.98,6.28,.33,.33,1.38,.96,2.72,0,3.75-2.67,9.88-10.05,9.61-11.89-.42-2.95,23.38-14.11,27.39-26.12s.42-1.69,.42-1.69c0,0,7.37-5.69,8.64-6.95s3.37,.63,5.06-1.47,3.16-3.58,3.16-3.58c0,0,8.22,20.01-8.43,45.29l.84,1.69s-4,8.64-2.53,10.74-.63,10.32-.63,10.32c0,0-1.05,15.17,0,24.23,1.05,9.06,12.43,1.9,12.43,1.9,0,0-20.22,13.06-17.49,24.86,0,0-8.43,3.16-8.22,5.69s-14.54,12.01-11.48,19.49Z"/><path class="cls-1" d="M470.82,854.95s8.01,8.01,23.59-15.17c0,0,18.54-11.38,23.59-26.33,0,0,5.9-5.69,6.32-8.22,0,0,12.91-2.74,15.41,0,2.5,2.74,6.5,4.63,6.5,4.63,0,0,2.95,7.58,4.21,7.58s5.27-.63,4.85-12.22,1.05-18.33-11.17-13.48c0,0-1.9,4-12.01-.21,0,0,10.72-8.24,10.94-17.71,0,0,5.7-3.78,2.96-10.31s6.32-56.04,10.95-59.62c4.63-3.58,4.42-6.11,4.42-6.11l14.33-4.63s.84-4.21,1.69-4.63,10.32-1.26,10.32-1.26c0,0,1.17,2.53,9.12,0s23.75-7.37,26.7-7.16c2.95,.21,9.69,1.9,11.17,1.47s5.94-1.81,4.89-2.85c-1.36-1.36-8.58-2.51-8.37-2.72h5.23s14.26,6.21,14.89,2.41c0,0-10.95-4.42-13.06-6.74-2.11-2.32-50.14,1.9-50.77,4s-6.95,1.26-6.95,1.26c0,0-11.17,4.21-15.8,0s-14.75-2.53-16.64-.63c-1.9,1.9-6.32,.42-6.32,.42,0,0-1.69-3.16-3.58-1.69,0,0-3.37-1.9-4.21-1.26s-2.31-2.78-2.31-2.78c0,0,2.1-5.22,.41-9.44,0,0-.03-3.93,0-5.27,.09-4.37-9.9-10.02-2.63-10.02,.09,0-17.6-1.57-25.39,8.97,0,0-.63,4,.21,5.69s2.42,3.27,2.42,3.27c0,0,0,2.74,.63,4.42s1.69,3.58,1.69,3.58c0,0-1.26,1.26-.63,2.95s3.58,6.32,3.58,6.32c0,0-12.43,.42-19.17,20.22,0,0-3.37,6.53-4.85,7.16s.21,1.9,.21,1.9l-5.9,6.74s-5.69,2.02-11.48,11.44-16.96,18.69-16.96,18.69c0,0-5.38,4.16-5.8,4.79-.37,.55-3.05,4.77-3.05,4.77,0,0-3.66,4.24-3.65,7.84,0,.71,.86,1.07,1.36,.57,.75-.75,1.71-1.85,2.29-3.01,0,0,4.07-4.71,8.28-6.4,0,0-4.25,6.01-3.98,6.28,.33,.33,1.38,.96,2.72,0,3.75-2.67,9.88-10.05,9.61-11.89-.42-2.95,23.38-14.11,27.39-26.12s.42-1.69,.42-1.69c0,0,7.37-5.69,8.64-6.95s3.37,.63,5.06-1.47,3.16-3.58,3.16-3.58c0,0,8.22,20.01-8.43,45.29l.84,1.69s-4,8.64-2.53,10.74-.63,10.32-.63,10.32c0,0-1.05,15.17,0,24.23,1.05,9.06,12.43,1.9,12.43,1.9,0,0-20.22,13.06-17.49,24.86,0,0-8.43,3.16-8.22,5.69s-14.54,12.01-11.48,19.49Z"/><path class="cls-1" d="M685.32,854.95s8.01,8.01,23.59-15.17c0,0,18.54-11.38,23.59-26.33,0,0,5.9-5.69,6.32-8.22,0,0,12.91-2.74,15.41,0,2.5,2.74,6.5,4.63,6.5,4.63,0,0,2.95,7.58,4.21,7.58s5.27-.63,4.85-12.22,1.05-18.33-11.17-13.48c0,0-1.9,4-12.01-.21,0,0,10.72-8.24,10.94-17.71,0,0,5.7-3.78,2.96-10.31s6.32-56.04,10.95-59.62,4.42-6.11,4.42-6.11l14.33-4.63s.84-4.21,1.69-4.63,10.32-1.26,10.32-1.26c0,0,1.17,2.53,9.12,0s23.75-7.37,26.7-7.16c2.95,.21,9.69,1.9,11.17,1.47s5.94-1.81,4.89-2.85c-1.36-1.36-8.58-2.51-8.37-2.72h5.23s14.26,6.21,14.89,2.41c0,0-10.95-4.42-13.06-6.74-2.11-2.32-50.14,1.9-50.77,4s-6.95,1.26-6.95,1.26c0,0-11.17,4.21-15.8,0s-14.75-2.53-16.64-.63c-1.9,1.9-6.32,.42-6.32,.42,0,0-1.69-3.16-3.58-1.69,0,0-3.37-1.9-4.21-1.26s-2.31-2.78-2.31-2.78c0,0,2.1-5.22,.41-9.44,0,0-.03-3.93,0-5.27,.09-4.37-9.9-10.02-2.63-10.02,.09,0-17.6-1.57-25.39,8.97,0,0-.63,4,.21,5.69s2.42,3.27,2.42,3.27c0,0,0,2.74,.63,4.42s1.69,3.58,1.69,3.58c0,0-1.26,1.26-.63,2.95s3.58,6.32,3.58,6.32c0,0-12.43,.42-19.17,20.22,0,0-3.37,6.53-4.85,7.16s.21,1.9,.21,1.9l-5.9,6.74s-5.69,2.02-11.48,11.44-16.96,18.69-16.96,18.69c0,0-5.38,4.16-5.8,4.79-.37,.55-3.05,4.77-3.05,4.77,0,0-3.66,4.24-3.65,7.84,0,.71,.86,1.07,1.36,.57,.75-.75,1.71-1.85,2.29-3.01,0,0,4.07-4.71,8.28-6.4,0,0-4.25,6.01-3.98,6.28,.33,.33,1.38,.96,2.72,0,3.75-2.67,9.88-10.05,9.61-11.89-.42-2.95,23.38-14.11,27.39-26.12s.42-1.69,.42-1.69c0,0,7.37-5.69,8.64-6.95s3.37,.63,5.06-1.47,3.16-3.58,3.16-3.58c0,0,8.22,20.01-8.43,45.29l.84,1.69s-4,8.64-2.53,10.74-.63,10.32-.63,10.32c0,0-1.05,15.17,0,24.23,1.05,9.06,12.43,1.9,12.43,1.9,0,0-20.22,13.06-17.49,24.86,0,0-8.43,3.16-8.22,5.69s-14.54,12.01-11.48,19.49Z"/><path class="cls-1" d="M899.82,854.95s8.01,8.01,23.59-15.17c0,0,18.54-11.38,23.59-26.33,0,0,5.9-5.69,6.32-8.22,0,0,12.91-2.74,15.41,0,2.5,2.74,6.5,4.63,6.5,4.63,0,0,2.95,7.58,4.21,7.58s5.27-.63,4.85-12.22,1.05-18.33-11.17-13.48c0,0-1.9,4-12.01-.21,0,0,10.72-8.24,10.94-17.71,0,0,5.7-3.78,2.96-10.31-2.74-6.53,6.32-56.04,10.95-59.62s4.42-6.11,4.42-6.11l14.33-4.63s.84-4.21,1.69-4.63,10.32-1.26,10.32-1.26c0,0,1.17,2.53,9.12,0s23.75-7.37,26.7-7.16c2.95,.21,9.69,1.9,11.17,1.47s5.94-1.81,4.89-2.85c-1.36-1.36-8.58-2.51-8.37-2.72h5.23s14.26,6.21,14.89,2.41c0,0-10.95-4.42-13.06-6.74s-50.14,1.9-50.77,4-6.95,1.26-6.95,1.26c0,0-11.17,4.21-15.8,0s-14.75-2.53-16.64-.63c-1.9,1.9-6.32,.42-6.32,.42,0,0-1.69-3.16-3.58-1.69,0,0-3.37-1.9-4.21-1.26s-2.31-2.78-2.31-2.78c0,0,2.1-5.22,.41-9.44,0,0-.03-3.93,0-5.27,.09-4.37-9.9-10.02-2.63-10.02,.09,0-17.6-1.57-25.39,8.97,0,0-.63,4,.21,5.69s2.42,3.27,2.42,3.27c0,0,0,2.74,.63,4.42s1.69,3.58,1.69,3.58c0,0-1.26,1.26-.63,2.95s3.58,6.32,3.58,6.32c0,0-12.43,.42-19.17,20.22,0,0-3.37,6.53-4.85,7.16s.21,1.9,.21,1.9l-5.9,6.74s-5.69,2.02-11.48,11.44c-5.79,9.42-16.96,18.69-16.96,18.69,0,0-5.38,4.16-5.8,4.79-.37,.55-3.05,4.77-3.05,4.77,0,0-3.66,4.24-3.65,7.84,0,.71,.86,1.07,1.36,.57,.75-.75,1.71-1.85,2.29-3.01,0,0,4.07-4.71,8.28-6.4,0,0-4.25,6.01-3.98,6.28,.33,.33,1.38,.96,2.72,0,3.75-2.67,9.88-10.05,9.61-11.89-.42-2.95,23.38-14.11,27.39-26.12,4-12.01,.42-1.69,.42-1.69,0,0,7.37-5.69,8.64-6.95s3.37,.63,5.06-1.47,3.16-3.58,3.16-3.58c0,0,8.22,20.01-8.43,45.29l.84,1.69s-4,8.64-2.53,10.74-.63,10.32-.63,10.32c0,0-1.05,15.17,0,24.23s12.43,1.9,12.43,1.9c0,0-20.22,13.06-17.49,24.86,0,0-8.43,3.16-8.22,5.69s-14.54,12.01-11.48,19.49Z"/></g><g><path class="cls-1" d="M35.82,1068.45s8.01,8.01,23.59-15.17c0,0,18.54-11.38,23.59-26.33,0,0,5.9-5.69,6.32-8.22,0,0,12.91-2.74,15.41,0,2.5,2.74,6.5,4.63,6.5,4.63,0,0,2.95,7.58,4.21,7.58s5.27-.63,4.85-12.22,1.05-18.33-11.17-13.48c0,0-1.9,4-12.01-.21,0,0,10.72-8.24,10.94-17.71,0,0,5.7-3.78,2.96-10.31-2.74-6.53,6.32-56.04,10.95-59.62,4.63-3.58,4.42-6.11,4.42-6.11l14.33-4.63s.84-4.21,1.69-4.63,10.32-1.26,10.32-1.26c0,0,1.17,2.53,9.12,0s23.75-7.37,26.7-7.16c2.95,.21,9.69,1.9,11.17,1.47s5.94-1.81,4.89-2.85c-1.36-1.36-8.58-2.51-8.37-2.72h5.23s14.26,6.21,14.89,2.41c0,0-10.95-4.42-13.06-6.74s-50.14,1.9-50.77,4-6.95,1.26-6.95,1.26c0,0-11.17,4.21-15.8,0s-14.75-2.53-16.64-.63c-1.9,1.9-6.32,.42-6.32,.42,0,0-1.69-3.16-3.58-1.69,0,0-3.37-1.9-4.21-1.26s-2.31-2.78-2.31-2.78c0,0,2.1-5.22,.41-9.44,0,0-.03-3.93,0-5.27,.09-4.37-9.9-10.02-2.63-10.02,.09,0-17.6-1.57-25.39,8.97,0,0-.63,4,.21,5.69s2.42,3.27,2.42,3.27c0,0,0,2.74,.63,4.42s1.69,3.58,1.69,3.58c0,0-1.26,1.26-.63,2.95s3.58,6.32,3.58,6.32c0,0-12.43,.42-19.17,20.22,0,0-3.37,6.53-4.85,7.16s.21,1.9,.21,1.9l-5.9,6.74s-5.69,2.02-11.48,11.44-16.96,18.69-16.96,18.69c0,0-5.38,4.16-5.8,4.79-.37,.55-3.05,4.77-3.05,4.77,0,0-3.66,4.24-3.65,7.84,0,.71,.86,1.07,1.36,.57,.75-.75,1.71-1.85,2.29-3.01,0,0,4.07-4.71,8.28-6.4,0,0-4.25,6.01-3.98,6.28,.33,.33,1.38,.96,2.72,0,3.75-2.67,9.88-10.05,9.61-11.89-.42-2.95,23.38-14.11,27.39-26.12s.42-1.69,.42-1.69c0,0,7.37-5.69,8.64-6.95s3.37,.63,5.06-1.47,3.16-3.58,3.16-3.58c0,0,8.22,20.01-8.43,45.29l.84,1.69s-4,8.64-2.53,10.74-.63,10.32-.63,10.32c0,0-1.05,15.17,0,24.23,1.05,9.06,12.43,1.9,12.43,1.9,0,0-20.22,13.06-17.49,24.86,0,0-8.43,3.16-8.22,5.69s-14.54,12.01-11.48,19.49Z"/><path class="cls-1" d="M250.32,1068.45s8.01,8.01,23.59-15.17c0,0,18.54-11.38,23.59-26.33,0,0,5.9-5.69,6.32-8.22,0,0,12.91-2.74,15.41,0,2.5,2.74,6.5,4.63,6.5,4.63,0,0,2.95,7.58,4.21,7.58s5.27-.63,4.85-12.22,1.05-18.33-11.17-13.48c0,0-1.9,4-12.01-.21,0,0,10.72-8.24,10.94-17.71,0,0,5.7-3.78,2.96-10.31-2.74-6.53,6.32-56.04,10.95-59.62,4.63-3.58,4.42-6.11,4.42-6.11l14.33-4.63s.84-4.21,1.69-4.63,10.32-1.26,10.32-1.26c0,0,1.17,2.53,9.12,0s23.75-7.37,26.7-7.16c2.95,.21,9.69,1.9,11.17,1.47s5.94-1.81,4.89-2.85c-1.36-1.36-8.58-2.51-8.37-2.72h5.23s14.26,6.21,14.89,2.41c0,0-10.95-4.42-13.06-6.74s-50.14,1.9-50.77,4-6.95,1.26-6.95,1.26c0,0-11.17,4.21-15.8,0s-14.75-2.53-16.64-.63c-1.9,1.9-6.32,.42-6.32,.42,0,0-1.69-3.16-3.58-1.69,0,0-3.37-1.9-4.21-1.26s-2.31-2.78-2.31-2.78c0,0,2.1-5.22,.41-9.44,0,0-.03-3.93,0-5.27,.09-4.37-9.9-10.02-2.63-10.02,.09,0-17.6-1.57-25.39,8.97,0,0-.63,4,.21,5.69s2.42,3.27,2.42,3.27c0,0,0,2.74,.63,4.42s1.69,3.58,1.69,3.58c0,0-1.26,1.26-.63,2.95s3.58,6.32,3.58,6.32c0,0-12.43,.42-19.17,20.22,0,0-3.37,6.53-4.85,7.16s.21,1.9,.21,1.9l-5.9,6.74s-5.69,2.02-11.48,11.44-16.96,18.69-16.96,18.69c0,0-5.38,4.16-5.8,4.79-.37,.55-3.05,4.77-3.05,4.77,0,0-3.66,4.24-3.65,7.84,0,.71,.86,1.07,1.36,.57,.75-.75,1.71-1.85,2.29-3.01,0,0,4.07-4.71,8.28-6.4,0,0-4.25,6.01-3.98,6.28,.33,.33,1.38,.96,2.72,0,3.75-2.67,9.88-10.05,9.61-11.89-.42-2.95,23.38-14.11,27.39-26.12s.42-1.69,.42-1.69c0,0,7.37-5.69,8.64-6.95s3.37,.63,5.06-1.47,3.16-3.58,3.16-3.58c0,0,8.22,20.01-8.43,45.29l.84,1.69s-4,8.64-2.53,10.74-.63,10.32-.63,10.32c0,0-1.05,15.17,0,24.23,1.05,9.06,12.43,1.9,12.43,1.9,0,0-20.22,13.06-17.49,24.86,0,0-8.43,3.16-8.22,5.69s-14.54,12.01-11.48,19.49Z"/><path class="cls-1" d="M464.82,1068.45s8.01,8.01,23.59-15.17c0,0,18.54-11.38,23.59-26.33,0,0,5.9-5.69,6.32-8.22,0,0,12.91-2.74,15.41,0,2.5,2.74,6.5,4.63,6.5,4.63,0,0,2.95,7.58,4.21,7.58s5.27-.63,4.85-12.22,1.05-18.33-11.17-13.48c0,0-1.9,4-12.01-.21,0,0,10.72-8.24,10.94-17.71,0,0,5.7-3.78,2.96-10.31s6.32-56.04,10.95-59.62c4.63-3.58,4.42-6.11,4.42-6.11l14.33-4.63s.84-4.21,1.69-4.63,10.32-1.26,10.32-1.26c0,0,1.17,2.53,9.12,0s23.75-7.37,26.7-7.16c2.95,.21,9.69,1.9,11.17,1.47s5.94-1.81,4.89-2.85c-1.36-1.36-8.58-2.51-8.37-2.72h5.23s14.26,6.21,14.89,2.41c0,0-10.95-4.42-13.06-6.74-2.11-2.32-50.14,1.9-50.77,4s-6.95,1.26-6.95,1.26c0,0-11.17,4.21-15.8,0s-14.75-2.53-16.64-.63c-1.9,1.9-6.32,.42-6.32,.42,0,0-1.69-3.16-3.58-1.69,0,0-3.37-1.9-4.21-1.26s-2.31-2.78-2.31-2.78c0,0,2.1-5.22,.41-9.44,0,0-.03-3.93,0-5.27,.09-4.37-9.9-10.02-2.63-10.02,.09,0-17.6-1.57-25.39,8.97,0,0-.63,4,.21,5.69s2.42,3.27,2.42,3.27c0,0,0,2.74,.63,4.42s1.69,3.58,1.69,3.58c0,0-1.26,1.26-.63,2.95s3.58,6.32,3.58,6.32c0,0-12.43,.42-19.17,20.22,0,0-3.37,6.53-4.85,7.16s.21,1.9,.21,1.9l-5.9,6.74s-5.69,2.02-11.48,11.44-16.96,18.69-16.96,18.69c0,0-5.38,4.16-5.8,4.79-.37,.55-3.05,4.77-3.05,4.77,0,0-3.66,4.24-3.65,7.84,0,.71,.86,1.07,1.36,.57,.75-.75,1.71-1.85,2.29-3.01,0,0,4.07-4.71,8.28-6.4,0,0-4.25,6.01-3.98,6.28,.33,.33,1.38,.96,2.72,0,3.75-2.67,9.88-10.05,9.61-11.89-.42-2.95,23.38-14.11,27.39-26.12s.42-1.69,.42-1.69c0,0,7.37-5.69,8.64-6.95s3.37,.63,5.06-1.47,3.16-3.58,3.16-3.58c0,0,8.22,20.01-8.43,45.29l.84,1.69s-4,8.64-2.53,10.74-.63,10.32-.63,10.32c0,0-1.05,15.17,0,24.23,1.05,9.06,12.43,1.9,12.43,1.9,0,0-20.22,13.06-17.49,24.86,0,0-8.43,3.16-8.22,5.69s-14.54,12.01-11.48,19.49Z"/><path class="cls-1" d="M679.32,1068.45s8.01,8.01,23.59-15.17c0,0,18.54-11.38,23.59-26.33,0,0,5.9-5.69,6.32-8.22,0,0,12.91-2.74,15.41,0,2.5,2.74,6.5,4.63,6.5,4.63,0,0,2.95,7.58,4.21,7.58s5.27-.63,4.85-12.22,1.05-18.33-11.17-13.48c0,0-1.9,4-12.01-.21,0,0,10.72-8.24,10.94-17.71,0,0,5.7-3.78,2.96-10.31s6.32-56.04,10.95-59.62,4.42-6.11,4.42-6.11l14.33-4.63s.84-4.21,1.69-4.63,10.32-1.26,10.32-1.26c0,0,1.17,2.53,9.12,0s23.75-7.37,26.7-7.16c2.95,.21,9.69,1.9,11.17,1.47s5.94-1.81,4.89-2.85c-1.36-1.36-8.58-2.51-8.37-2.72h5.23s14.26,6.21,14.89,2.41c0,0-10.95-4.42-13.06-6.74-2.11-2.32-50.14,1.9-50.77,4s-6.95,1.26-6.95,1.26c0,0-11.17,4.21-15.8,0s-14.75-2.53-16.64-.63c-1.9,1.9-6.32,.42-6.32,.42,0,0-1.69-3.16-3.58-1.69,0,0-3.37-1.9-4.21-1.26s-2.31-2.78-2.31-2.78c0,0,2.1-5.22,.41-9.44,0,0-.03-3.93,0-5.27,.09-4.37-9.9-10.02-2.63-10.02,.09,0-17.6-1.57-25.39,8.97,0,0-.63,4,.21,5.69s2.42,3.27,2.42,3.27c0,0,0,2.74,.63,4.42s1.69,3.58,1.69,3.58c0,0-1.26,1.26-.63,2.95s3.58,6.32,3.58,6.32c0,0-12.43,.42-19.17,20.22,0,0-3.37,6.53-4.85,7.16s.21,1.9,.21,1.9l-5.9,6.74s-5.69,2.02-11.48,11.44-16.96,18.69-16.96,18.69c0,0-5.38,4.16-5.8,4.79-.37,.55-3.05,4.77-3.05,4.77,0,0-3.66,4.24-3.65,7.84,0,.71,.86,1.07,1.36,.57,.75-.75,1.71-1.85,2.29-3.01,0,0,4.07-4.71,8.28-6.4,0,0-4.25,6.01-3.98,6.28,.33,.33,1.38,.96,2.72,0,3.75-2.67,9.88-10.05,9.61-11.89-.42-2.95,23.38-14.11,27.39-26.12s.42-1.69,.42-1.69c0,0,7.37-5.69,8.64-6.95s3.37,.63,5.06-1.47,3.16-3.58,3.16-3.58c0,0,8.22,20.01-8.43,45.29l.84,1.69s-4,8.64-2.53,10.74-.63,10.32-.63,10.32c0,0-1.05,15.17,0,24.23,1.05,9.06,12.43,1.9,12.43,1.9,0,0-20.22,13.06-17.49,24.86,0,0-8.43,3.16-8.22,5.69s-14.54,12.01-11.48,19.49Z"/><path class="cls-1" d="M893.82,1068.45s8.01,8.01,23.59-15.17c0,0,18.54-11.38,23.59-26.33,0,0,5.9-5.69,6.32-8.22,0,0,12.91-2.74,15.41,0,2.5,2.74,6.5,4.63,6.5,4.63,0,0,2.95,7.58,4.21,7.58s5.27-.63,4.85-12.22,1.05-18.33-11.17-13.48c0,0-1.9,4-12.01-.21,0,0,10.72-8.24,10.94-17.71,0,0,5.7-3.78,2.96-10.31-2.74-6.53,6.32-56.04,10.95-59.62s4.42-6.11,4.42-6.11l14.33-4.63s.84-4.21,1.69-4.63,10.32-1.26,10.32-1.26c0,0,1.17,2.53,9.12,0s23.75-7.37,26.7-7.16c2.95,.21,9.69,1.9,11.17,1.47s5.94-1.81,4.89-2.85c-1.36-1.36-8.58-2.51-8.37-2.72h5.23s14.26,6.21,14.89,2.41c0,0-10.95-4.42-13.06-6.74s-50.14,1.9-50.77,4-6.95,1.26-6.95,1.26c0,0-11.17,4.21-15.8,0s-14.75-2.53-16.64-.63c-1.9,1.9-6.32,.42-6.32,.42,0,0-1.69-3.16-3.58-1.69,0,0-3.37-1.9-4.21-1.26s-2.31-2.78-2.31-2.78c0,0,2.1-5.22,.41-9.44,0,0-.03-3.93,0-5.27,.09-4.37-9.9-10.02-2.63-10.02,.09,0-17.6-1.57-25.39,8.97,0,0-.63,4,.21,5.69s2.42,3.27,2.42,3.27c0,0,0,2.74,.63,4.42s1.69,3.58,1.69,3.58c0,0-1.26,1.26-.63,2.95s3.58,6.32,3.58,6.32c0,0-12.43,.42-19.17,20.22,0,0-3.37,6.53-4.85,7.16s.21,1.9,.21,1.9l-5.9,6.74s-5.69,2.02-11.48,11.44c-5.79,9.42-16.96,18.69-16.96,18.69,0,0-5.38,4.16-5.8,4.79-.37,.55-3.05,4.77-3.05,4.77,0,0-3.66,4.24-3.65,7.84,0,.71,.86,1.07,1.36,.57,.75-.75,1.71-1.85,2.29-3.01,0,0,4.07-4.71,8.28-6.4,0,0-4.25,6.01-3.98,6.28,.33,.33,1.38,.96,2.72,0,3.75-2.67,9.88-10.05,9.61-11.89-.42-2.95,23.38-14.11,27.39-26.12,4-12.01,.42-1.69,.42-1.69,0,0,7.37-5.69,8.64-6.95s3.37,.63,5.06-1.47,3.16-3.58,3.16-3.58c0,0,8.22,20.01-8.43,45.29l.84,1.69s-4,8.64-2.53,10.74-.63,10.32-.63,10.32c0,0-1.05,15.17,0,24.23s12.43,1.9,12.43,1.9c0,0-20.22,13.06-17.49,24.86,0,0-8.43,3.16-8.22,5.69s-14.54,12.01-11.48,19.49Z"/></g></svg>