<?xml version="1.0" encoding="UTF-8"?><svg id="Layer_2" xmlns="http://www.w3.org/2000/svg" viewBox="0 0 86.44 307.74"><defs><style>.cls-1{fill:#fff;stroke:#0a4051;stroke-miterlimit:10;stroke-width:5px;}</style></defs><g id="Layer_1-2"><path class="cls-1" d="M61.58,51.76c-.35-9.06,.31-23.25,3.56-23.77,6.05-.96,8.23-5.93,6.87-15.67-1-7.18-14.33-9.14-23.82-9.63v-.11s-.48-.02-.48-.02c-.41-.02-3.75-.15-8.17,.03-.42,.01-.71,.02-.81,.03l-.48,.02h0c-9.49,.51-22.82,2.5-23.82,9.68-1.36,9.73,.83,14.71,6.87,15.67,3.26,.52,3.91,14.7,3.56,23.77-2.88,1.03-22.36,8.41-22.36,18.73v230.84l.44,.05c.27,.03,26.53,3.27,39.29,3.75v.06s.5,0,.5,0c.16,0,.34,0,.51-.01,.17,0,.34,.01,.51,.01h.5s0-.05,0-.05c12.76-.48,38.98-3.72,39.25-3.75l.44-.05V70.49c0-10.32-19.48-17.7-22.36-18.73Z"/></g></svg>